<svg version="1.2" xmlns="http://www.w3.org/2000/svg" viewBox="0 0 54 55" width="54" height="55"><style>.a{fill:#ff7b29}</style><path fill-rule="evenodd" class="a" d="m36.8 11.9c0.1 0.4-0.3 0.8-0.7 0.9l-18.9 2.9q-0.2 0-0.3 0.1 0.1 0 0.2 0h19.9c1.2 0 2.1 0.9 2.1 2.1v23.1c0 1.2-0.9 2.1-2.1 2.1h-19.9c-1.2 0-2.1-0.9-2.1-2.1v-24.6c0-1.2 0.8-2.1 2-2.3l18.9-2.9c0.4-0.1 0.8 0.2 0.9 0.7zm-9.7 26.6c4.9 0 9-4.1 9-9 0-5-4.1-9.1-9-9.1-5 0-9.1 4.1-9.1 9.1 0 4.9 4.1 9 9.1 9zm-1-14h0.1c0.2-0.2 0.2-0.2 0.2-0.2 0 0 0 0 0.1-0.1 0.2-0.1 0.1-0.1 0.1-0.1 0 0 0 0 0.1 0l0.3-0.1c0.2-0.1 0.4-0.3 0.5-0.5q0-0.1 0.1-0.1c0 0 0 0-0.1-0.1 0-0.1-0.1 0-0.1 0q0 0 0.1-0.1c0-0.1 0-0.2 0-0.3q0 0 0.1-0.1 0 0 0 0c-0.1 0-0.1 0 0-0.2l0.1-0.3c0-0.1 0-0.2-0.1-0.2l0.2-0.1c0.1-0.1 0.2-0.2 0.2-0.2 0.1-0.1 0-0.2 0-0.3l0.1-0.1q0.1 0 0.1 0c0 0 0 0 0.1-0.1 0-0.1 0-0.1 0-0.1 0 0 0 0 0.1-0.1q0-0.1 0-0.2c1.3 0.2 2.4 0.7 3.4 1.4q0 0-0.1 0.1c-0.1 0.1-0.1 0.2 0 0.3q0 0.1 0 0.1c-0.1 0.1 0 0.3 0 0.3 0 0 0.3 0.3 0.4 0.3q0.1 0.1 0.2 0.2 0 0 0 0 0 0 0 0c0 0 0 0.1-0.2 0.1-0.1 0.1-0.4 0.3-0.4 0.3 0 0-0.3 0.1-0.4 0 0-0.1-0.2-0.2-0.2-0.2 0 0-0.1-0.1-0.2-0.1-0.2-0.1-0.3-0.2-0.3-0.2 0 0-0.3-0.1-0.4 0q0 0.1-0.1 0.1c-0.2 0.1-0.3 0.2-0.3 0.3q-0.1 0.1-0.1 0.2-0.1 0.2-0.1 0.2c0 0.1-0.3 0.5-0.4 0.6-0.1 0.1-0.2 0.3-0.2 0.4 0.1 0.1 0.3 0.4 0.4 0.3h0.1l0.3 0.2c0 0 0.3-0.6 0.3-0.6 0 0-0.1-0.4 0-0.4 0.1-0.1 0.1-0.2 0.2-0.3 0-0.1 0.1-0.2 0.1-0.1 0.1 0.1-0.1 0.6-0.1 0.6l0.4 0.2c0 0 0.3-0.1 0.2 0q-0.1 0.1-0.2 0.2-0.1 0.1-0.2 0.2c0 0.1-0.4 0.5-0.4 0.5h-0.3c0 0-0.3-0.1-0.5 0-0.2 0.1-0.5 0.4-0.5 0.4v0.4c0 0-0.3-0.1-0.3 0-0.1 0.2 0 0.3 0 0.3l0.1 0.3c0 0-0.1 0.1-0.3 0.1q-0.1 0-0.2-0.1c0 0 0 0-0.1 0.1 0 0.1 0 0.4 0 0.4v0.3c0 0 0.1-0.4 0.1 0 0 0.2 0.1 0.2 0.1 0.2 0 0 0 0-0.1 0.2-0.1 0.1-0.1 0.1-0.1 0.2 0 0 0 0-0.1 0.1-0.1 0.1-0.2 0.2-0.2 0.3q-0.1 0.1-0.2 0.3-0.1 0.1-0.1 0.3-0.1 0.1-0.2 0.2c0 0 0 0 0 0.1q0 0 0 0.1c0 0.1 0 0.4 0 0.4 0 0 0.2 0.4 0.3 0.5q0 0 0 0 0.1 0.1 0.2 0.2l0.1 0.2c0 0 0.2-0.1 0.3 0 0 0 0 0 0 0h0.4q0 0 0.1 0.1 0 0 0.1-0.1c0.1 0 0.3-0.1 0.3-0.1l0.3 0.2 0.3 0.1q0 0.1 0 0.3-0.1 0.1 0 0.2 0 0 0 0.1c0.1 0.1 0.2 0.3 0.3 0.3 0.1 0 0.2 0.1 0.2 0.1v0.5l-0.1 0.3v0.1c0 0-0.1 0.3 0 0.4q0 0.1 0 0.2c0 0.2 0.1 0.3 0.1 0.4 0.1 0.1 0.2 0.3 0.2 0.3l0.2 0.5c0 0 0.4-0.2 0.6-0.2q0.2-0.1 0.4-0.5 0-0.1 0.1-0.3 0-0.2 0.1-0.3c0.1-0.1 0.2-0.2 0.3-0.3 0.1-0.1 0.3-0.4 0.4-0.6 0-0.1-0.1-0.7-0.1-0.7 0 0 0-0.2 0.1-0.3 0.1-0.1 0.4-0.4 0.4-0.5 0.1-0.1 0.2-0.2 0.2-0.3 0.1-0.1 0.2-0.3 0.3-0.3 0-0.1 0-0.5 0-0.4-0.1 0.1-0.4 0.2-0.4 0.2 0 0-0.3-0.3-0.2-0.3 0.1 0 0.6-0.1 0.8-0.2 0.2-0.2 0.5-0.5 0.5-0.5v-0.4c0 0-0.1-0.1-0.2-0.1-0.1-0.1-0.3-0.1-0.3-0.1l-0.2-0.2c0 0-0.5-0.3-0.3-0.3 0.1 0 0.8 0.3 0.8 0.3 0 0 0.5 0 0.5 0 0.1 0 0.6 0.3 0.6 0.4 0.1 0 0.2 0.2 0.3 0.3q0.1 0.1 0.1 0.2c0.1 0.1 0.3 0.4 0.3 0.4q0 0 0 0c-0.5 4.3-4.1 7.6-8.5 7.6q-1.1 0-2-0.2h0.1l-0.3-0.6c0 0 0.1-0.1 0-0.2l-0.1-0.1-0.1-0.1v-0.2c0 0 0.1-0.1 0-0.1 0-0.1-0.1 0-0.1 0q0 0 0-0.1v-0.1c0 0 0.2-0.1 0.2-0.2 0-0.1 0 0 0 0q0 0 0.1-0.1c0-0.2 0.1-0.4 0.1-0.4l0.2-0.2v-0.3c0 0-0.1-0.1 0-0.2 0-0.1 0-0.2 0-0.2 0 0 0-0.1 0.1-0.1 0.1-0.1 0.3-0.3 0.3-0.3 0 0-0.1 0 0-0.1q0.2-0.1 0.2-0.3c0 0 0 0.1 0 0.1q0 0-0.1-0.2 0-0.1 0-0.2c0 0 0-0.1 0-0.2 0-0.1-0.1-0.1-0.1-0.1q0 0 0.1-0.1c0.1-0.1 0.2-0.4 0.2-0.4 0 0-0.2-0.2-0.2-0.2q-0.1 0-0.2-0.1 0 0-0.1 0c-0.1-0.1-0.5-0.2-0.5-0.2 0 0-0.2-0.1-0.2-0.1-0.1 0-0.4-0.4-0.4-0.4 0 0 0 0-0.2-0.1-0.3-0.1-0.3-0.1-0.4-0.2-0.1 0-0.3-0.2-0.3-0.2v-0.1c0 0-0.1 0-0.3 0-0.3 0-0.5-0.2-0.5-0.2 0 0-0.1 0-0.2 0.1-0.1 0-0.3 0.1-0.3 0.1l-0.2 0.1h-0.3l-0.2-0.2-0.1-0.2c0 0-0.1-0.2-0.1-0.2-0.1-0.1-0.3-0.2-0.3-0.2l0.1-0.3c0 0-0.1-0.2-0.2-0.1-0.1 0-0.3 0.2-0.3 0.2 0 0-0.1 0.1-0.1 0-0.1 0-0.2 0-0.4-0.2-0.1-0.1-0.1-0.2-0.1-0.3 0-0.1 0.1-0.4 0.1-0.4l0.5-0.3h0.2l0.3-0.1 0.3 0.3 0.2 0.3c0 0 0.3-0.2 0.2-0.2 0-0.1-0.1-0.3-0.1-0.3 0 0 0.1-0.2 0.1-0.3q0.1 0 0.1-0.1 0 0 0.1-0.1c0.1-0.2 0.2-0.2 0.2-0.3 0.1-0.1 0.3-0.5 0.3-0.5l0.2-0.1 0.2-0.2 0.1-0.2h0.2l0.4-0.1h0.2l-0.2-0.3-0.2-0.1c0.2-0.2 0.5-0.3 0.5-0.3 0 0 0.4-0.2 0.4-0.1-0.1 0.1-0.3 0.5-0.3 0.5l0.2 0.1c0 0 0.2 0.1 0.2 0 0.1-0.1 0.1-0.3 0.1-0.3l-0.1-0.3v-0.4c0-0.1 0-0.4-0.1-0.4-0.1 0.1-0.1-0.2-0.1-0.2v-0.4l-0.3 0.3c0 0-0.2 0-0.2-0.1 0-0.1 0.2-0.2 0.2-0.2l-0.3-0.2c0 0-0.3-0.2-0.4-0.1 0 0.1-0.1 0.3-0.1 0.3l-0.1 0.2v0.2l-0.1 0.3-0.3 0.3-0.2 0.3c0 0 0-0.4 0-0.5 0 0-0.4-0.3-0.4-0.3l-0.1-0.4c0 0 0.1-0.2 0.1-0.2 0-0.1 0.2-0.3 0.3-0.4 0.1-0.1 0.3-0.3 0.4-0.3 0.1-0.1 0.3-0.2 0.3-0.2l-0.1 0.5 0.3-0.1v-0.2l0.3-0.2 0.1-0.4c0 0 0.2-0.3 0.3-0.3 0 0.1 0.2 0.3 0.2 0.3l-0.3 0.6h-0.2l-0.1 0.2c0 0 0.2 0 0.3 0.1 0.1 0.1 0.2 0.3 0.2 0.3l0.3-0.3v-0.2h0.3l0.1-0.3v-0.2q0 0 0-0.2v-0.1l-0.1-0.2v-0.4l-0.1-0.3h-0.5l-0.8-0.4h-0.2l-0.4-0.2q1-0.5 2-0.9-0.1 0.1-0.1 0.2c0 0.2 0 0.4 0.1 0.5 0.1 0.1 0.2 0.2 0.3 0.2h0.1c0.1 0 0.3-0.3 0.3-0.3 0.1-0.1 0.4-0.3 0.5-0.4h0.1q0.1 0 0.1 0h0.1c-0.1 0-0.2 0.1-0.2 0.2l-0.2 0.1-0.2 0.2c0 0.1 0 0.3 0 0.4l0.1 0.1 0.1 0.2q0 0.1 0 0.2 0 0.1 0 0.2 0 0.1 0 0.2c0 0-0.1 0.2-0.1 0.3 0 0.1-0.1 0.2-0.1 0.3 0 0 0 0.3-0.1 0.5l-0.1 0.1c-0.1 0.1-0.1 0.1-0.1 0.2q0 0.1 0.1 0.1 0 0.1-0.1 0.1c0 0 0 0.1 0.1 0.2 0.1 0.1 0.1 0 0.1 0q0 0 0 0.1c0.1 0.1 0.1 0.1 0.1 0.1q0 0 0.1-0.1h0.2c0.2-0.3 0.4-0.5 0.4-0.5q0 0 0 0 0 0 0 0 0 0 0 0 0 0 0 0 0 0 0-0.1 0 0 0 0zm-0.2-3.1q0 0 0 0 0 0 0 0 0 0-0.1 0 0.1 0 0.1 0 0 0 0 0 0 0 0 0zm2.5 4.9c-0.1 0.1-0.2 0.3-0.2 0.3 0 0.1 0.1 0.2 0.1 0.3 0 0 0.1 0 0.2-0.1 0-0.1 0.1-0.2 0.2-0.2 0 0 0-0.1 0-0.2 0-0.1 0-0.1 0-0.2q-0.1 0-0.1-0.1 0 0 0 0-0.1-0.1-0.1-0.2v-0.1c0-0.1-0.1-0.2-0.2-0.2q0 0.1 0 0.1 0 0.1-0.1 0.1v0.1c0.1 0.1 0.1 0.3 0.2 0.4zm-0.3 0c0-0.1 0-0.2 0-0.3v0.1q-0.1 0-0.1 0-0.1 0-0.1 0.1 0 0 0 0.1c-0.1 0.1-0.1 0.3 0 0.3 0.1-0.1 0.2-0.2 0.2-0.3zm4.9 7c-0.2 0.3-0.3 0.5-0.4 0.5 0 0.1-0.1 0.2-0.2 0.4v0.1c0 0.1 0.1 0.1 0.1 0.1q0.1 0 0.1 0.1l0.1-0.1q0 0 0-0.1 0 0 0.1 0 0 0 0-0.1c0-0.1 0.1-0.2 0.1-0.3q0.1-0.1 0.1-0.2c0.1-0.2 0.2-0.5 0.2-0.7l-0.1 0.2zm-14.6-3.5c0.1 0 0.1 0 0.1 0 0 0.1 0 0.1 0.1 0.1 0.2 0.1 0.2 0.1 0.2 0.1 0 0-0.1-0.1 0-0.2 0-0.1 0 0 0 0q0 0 0-0.1c-0.1-0.1-0.1-0.1-0.1-0.1q0 0 0-0.1l-0.1-0.2c0 0 0-0.1 0.1-0.1 0 0 0.1 0.3 0.1 0.3 0 0 0.2 0.3 0.2 0.3l0.1 0.1c0 0 0.1 0.1 0.2 0.2q0 0.1-0.1 0.1c0 0 0 0.1 0.1 0.1 0 0 0 0 0 0 0 0 0 0 0.1 0.1 0.1 0.1 0.2 0.1 0.2 0.1q0.1 0 0.1 0.1 0.1 0 0.1-0.1c0 0 0.1 0 0.1 0.1 0.1 0 0 0 0 0q0 0 0.1 0.1 0.3 0.2 0.3 0.2c0 0 0.1-0.1 0.2 0 0.2 0.2 0.4 0.2 0.4 0.2 0 0 0 0.1 0.1 0.2 0.1 0.1 0.1 0 0.1 0q0 0 0 0.1l0.2 0.1 0.2 0.2h0.1l0.1 0.1 0.2 0.3v0.2c0 0-0.1-0.2-0.1 0 0 0.1 0 0.1 0 0.1q0-0.1 0 0l-0.1 0.2 0.2 0.2v0.4c0 0 0.1 0.1 0.2 0.2 0 0 0 0 0 0 0-0.1 0-0.1 0.1 0l0.2 0.2 0.3 0.3v0.1c0 0 0.2-0.2 0.2 0 0.1 0.1 0.2 0.2 0.2 0.2v0.1c0 0 0.1-0.2 0.2 0 0 0.2 0 0.3 0 0.3 0 0 0.1 0.2 0.1 0.2q0 0.1 0 0.1 0 0.1 0 0.2c0.1 0 0.2 0.4 0.2 0.4l0.2 0.4c0 0-0.1 0.1 0 0.2 0 0.1 0.1 0.2 0.1 0.2 0 0-0.2 0.2 0 0.4 0.1 0.1 0.1 0.1 0.1 0.1 0 0 0 0 0.1 0 0.1 0.2 0.2 0.4 0.2 0.4l0.3 0.4 0.2 0.1c-3.6-0.9-6.3-4.1-6.4-7.9q0 0 0 0zm14.2-6.8c0 0-0.1 0.3-0.2 0.4l-0.3-0.2c0 0-0.2-0.6-0.3-0.6 0-0.1 0-0.2 0-0.3q0.4 0.2 0.8 0.5-0.1 0.1 0 0.2zm-2.3 5.1l0.4 0.1v-0.3h0.1l0.4 0.3h0.6c0 0 0 0.3-0.1 0.4 0 0.1-0.4 0.1-0.4 0.1h-0.4-0.3l-0.2 0.2-0.3-0.1c0 0-0.4-0.3-0.4-0.4 0 0-0.2-0.1-0.4-0.1q0 0-0.1 0 0 0 0 0c-0.1-0.1-0.2-0.1-0.5 0 0 0-0.1 0.1-0.3 0.1-0.3 0.1 0.2-0.3 0.3-0.3 0.1-0.1 0.2-0.2 0.2-0.3q0-0.1 0.1-0.2c0.1-0.2 0.4 0 0.4 0h0.2c0 0 0.2 0.2 0.3 0.3 0 0.1 0 0.1 0 0.1q-0.1 0-0.1 0.1c-0.1 0.1 0.1 0.2 0.1 0.2l0.2-0.2zm1.2-0.9l0.2-0.3c0 0 0.1 0.2 0.1 0.3 0.1 0.1 0.3 0.2 0.3 0.2l-0.1 0.1h-0.4c0 0-0.2 0-0.4 0l-0.2-0.1c0 0 0.2-0.1 0.3-0.2 0.1-0.1 0.2 0 0.2 0zm0.8 2.6c0.1 0.1 0.2 0.3 0.2 0.4 0.1 0.3 0 0.5 0 0.5 0 0-0.2-0.3-0.3-0.5 0-0.1-0.3-0.3-0.4-0.4-0.1-0.1-0.1-0.6-0.1-0.6h0.3c0 0 0.1 0.2 0.1 0.3q0.1 0.1 0.2 0.3zm-9.6 0.5c-0.1 0-0.1-0.1-0.1-0.1h-0.2l-0.1 0.1c-0.1 0.1-0.4 0.2-0.5 0.4h0.9q0.1-0.1 0.1-0.2c0 0 0-0.1-0.1-0.2zm3.4-5.8q0 0 0 0 0 0 0 0 0 0 0 0zm-7.7 5.1q0 0 0-0.1 0 0.1 0 0.1 0 0 0 0zm3.1 0.3c-0.1 0-0.2 0-0.2 0q-0.1 0.2 0 0.2c0.1 0 0.2 0 0.3 0.1 0 0 0.2 0 0.3 0 0.1 0 0.2 0 0.2 0 0-0.1-0.1-0.1-0.2-0.1-0.1 0-0.3-0.1-0.4-0.2zm4.6-5.4q0 0 0 0-0.1 0-0.1 0 0 0 0 0 0 0 0 0 0 0 0 0 0 0 0 0 0 0 0 0 0 0 0.1 0 0 0 0 0 0 0-0.1 0 0.1 0 0.1 0 0 0 0 0zm0 0q0 0 0 0 0 0 0 0 0 0 0 0 0 0 0 0z"/></svg>