<svg version="1.2" xmlns="http://www.w3.org/2000/svg" viewBox="0 0 54 55" width="54" height="55"><style>.a{fill:#ff7b29}</style><path class="a" d="m31.5 28.4c0 0 0.1 0.1 0.3 0.1 0.1 0 0.3 0.1 0.5 0.2 0.1 0.1 0.3 0.1 0.4 0 0-0.1 0-0.2-0.1-0.2-0.1 0-0.3-0.1-0.4-0.1-0.1-0.1-0.3-0.2-0.4-0.2-0.2 0-0.3 0.1-0.3 0.2z"/><path class="a" d="m30.5 28.1c0.1 0.1 0.2 0.2 0.2 0.2 0 0 0 0 0.2-0.1 0.2-0.1 0.2-0.1 0.2-0.1 0.2-0.1 0.6-0.3 0.8-0.5 0 0 0 0-0.4 0-0.2 0-0.2 0-0.2 0-0.3 0-0.7 0-0.8 0 0 0-0.1 0.1-0.1 0.2 0 0.1 0.1 0.2 0.1 0.3z"/><path class="a" d="m22.2 34.1q0 0 0 0c0.1-0.1 0.2-0.4 0.2-0.5 0-0.1 0-0.2 0-0.3 0 0-0.1 0-0.3 0.1-0.1 0.1-0.2 0.2-0.3 0.3-0.1 0-0.1 0.1-0.1 0.2 0 0 0 0 0 0.1 0 0.1 0.1 0.3 0.2 0.4 0 0 0.1 0.2 0.1 0.3 0 0.1 0 0.1 0 0.1 0.1 0.2 0.2 0.3 0.3 0.3q0 0 0.1 0c0 0 0-0.2 0-0.3 0.1 0 0.1 0 0.1 0-0.1-0.2-0.2-0.5-0.3-0.7q0 0 0 0z"/><path class="a" d="m23 33.7c-0.1 0-0.1 0-0.1 0-0.1 0.1-0.2 0.2-0.3 0.4 0 0.1 0 0.3 0 0.4 0 0 0 0 0.1 0 0.1-0.1 0.3-0.1 0.3-0.3 0-0.1 0.1-0.5 0-0.5z"/><path class="a" d="m15.4 23.8c0.3-0.3 0.6-0.7 0.6-0.7 0.1-0.1 0.2-0.3 0.3-0.5 0 0 0 0 0.1-0.1 0 0 0 0 0 0-0.1-0.2-0.2-0.3-0.2-0.3q-0.1 0-0.2 0 0 0 0 0c-0.1 0-0.1 0-0.1 0.1-0.1 0.1-0.1 0.1-0.1 0.3-0.1 0.1-0.3 0.6-0.3 0.6-0.1 0.1-0.1 0.1-0.1 0.1 0 0.3-0.2 0.8-0.3 1 0 0 0 0 0.2-0.2 0.1-0.3 0.1-0.3 0.1-0.3z"/><path fill-rule="evenodd" class="a" d="m31.1 18.1c0.3 0.1 0.3 0.4 0.2 0.7-0.2 0.2-0.5 0.2-0.7 0.1q-1.2-0.7-2.5-1.2l0.2 0.2c0 0 0.1 0.3 0.2 0.6 0.1 0.1 0.1 0.1 0.1 0.1 0 0 0.1 0 0.2 0.1 0.3 0.3 0 0.5 0 0.5 0 0 0.1 0.2 0.2 0.3 0.1 0.2 0 0.4 0 0.4l0.3 0.6c0 0 0.1 0.5 0.2 0.6q0 0.1 0 0.2 0 0 0 0.1c0 0.1 0.2 0.3 0.2 0.3 0 0 0 0.2 0 0.5 0.1 0.3 0.3 0 0.3 0v0.1c0 0 0.1 0.2 0.2 0.4 0.1 0.2 0.4 0 0.4 0v0.1l0.4 0.4 0.3 0.3c0.2 0.1 0.2 0.1 0.1 0.1 0-0.1 0-0.1 0-0.1 0.1 0.1 0.4 0.4 0.4 0.4v0.5l0.2 0.3-0.1 0.2c0 0.1 0 0.1 0 0.1 0 0 0 0 0 0.2 0 0.2-0.1 0-0.1 0v0.2l0.3 0.4 0.1 0.2h0.1l0.4 0.2 0.1 0.2c0.1 0.1 0.1 0.2 0.1 0.2 0 0 0-0.1 0.1 0 0.2 0.1 0.3 0.3 0.3 0.3 0 0 0.2 0 0.4 0.2 0.3 0.2 0.3 0 0.3 0q0 0 0.5 0.4c0.1 0 0.2 0.1 0.2 0.1 0 0-0.1-0.1-0.1 0.1 0.1 0.1 0.1 0.1 0.2 0 0 0 0-0.1 0.1 0q0.1 0 0.1 0c0.1 0.1 0.2 0.1 0.4 0.2 0.2 0.2 0.2 0.2 0.1 0.1 0 0 0 0 0.1 0.1 0.1 0 0.1 0.1 0 0.1q0 0.1 0 0.2c0 0.1 0.2 0.2 0.2 0.2l0.1 0.1c0.1 0.1 0.3 0.5 0.3 0.5 0 0 0.2 0.5 0.3 0.5q0 0 0 0 0-0.2 0-0.3l-0.1-0.2c0-0.2 0-0.2 0-0.2 0 0 0 0.1-0.1-0.1q-0.1-0.1-0.1-0.1c0 0 0.1 0.1 0.1 0 0.1-0.2 0-0.3 0-0.3 0 0 0 0 0.2 0.1q-0.1-1.4-0.5-2.6c-0.1-0.3 0.1-0.6 0.4-0.6 0.2-0.1 0.5 0 0.6 0.3q0.5 1.7 0.5 3.5 0 0.1 0 0.1c0 7.3-5.9 13.3-13.3 13.3-7.3 0-13.2-6-13.2-13.3 0-7.3 5.9-13.2 13.2-13.2 2.6 0 4.9 0.7 6.9 2zm-8.6 23.2c0-0.2 0-0.2 0.1-0.2q0 0.1 0.1 0l0.2-0.1c-0.1-0.1-0.1-0.3-0.1-0.4 0.1-0.1 0.2-0.2 0.4-0.3l0.2-0.2c-0.1 0-0.1-0.2-0.1-0.3l0.2-0.4c0.1-0.3 0-0.3 0-0.3 0 0-0.1 0 0 0 0-0.1 0-0.2 0-0.2 0.1-0.1 0.1-0.2 0.1-0.4 0.1-0.2 0.1-0.2 0.1-0.1 0 0-0.1 0.1-0.2 0 0-0.1 0-0.2 0-0.2q0 0 0-0.1l0.1-0.1c0.1-0.2 0.5-0.5 0.7-0.7l0.4-0.1c0.1 0 0.2 0 0.2 0 0 0-0.1-0.1 0.1-0.2 0.1-0.1 0.1-0.1 0.2-0.1 0 0 0 0 0.3-0.2l0.1-0.1v-0.1h0.1q0 0 0 0 0 0 0 0 0 0 0 0c0 0 0.2-0.3 0.6-0.7l0.2-0.1q0.1-0.1 0.1-0.1c0.1 0 0.1 0 0.2 0.1 0 0.1 0 0.1 0 0.1 0 0 0.1 0 0.2 0.1 0.2 0.2 0.1 0.2 0.1 0.2-0.1 0.1-0.1 0.1-0.1 0.2q0 0.1 0.1 0.1c0 0.2 0.1 0.2-0.1 0.3l-0.2 0.2c-0.1 0.4-0.2 0.7-0.2 0.8 0 0 0 0.2-0.1 0.4 0 0.2-0.1 0.3-0.1 0.4q0 0.1 0 0.3 0 0 0 0 0 0.2 0 0.3v0.1c0 0 0 0.1 0 0.2l0.2 0.4c0.1 0.2 0.1 0.5 0 0.7l-0.3 0.2-0.2 0.2c-0.1 0.1-0.2 0.2-0.3 0.2h0.1c0 0 0.1 0 0.2 0h0.1c0.1-0.1 0.7-0.4 0.7-0.5 0.1-0.1 0.4-0.5 0.6-0.5h0.1c0.1 0 0.3 0.1 0.4 0.3 0.1 0.1 0.1 0.3 0.2 0.5q1.2-0.4 2.2-1l-0.1-0.1h-0.3l-1.1-0.5h-0.7l-0.3-0.4v-0.7l-0.1-0.3v-0.1c0.1-0.2 0.1-0.3 0.1-0.3l-0.1-0.3 0.2-0.5h0.4v-0.3l0.4-0.3c0 0 0.3 0.3 0.4 0.4 0.2 0.1 0.4 0.1 0.4 0.1l-0.2 0.4h-0.3l-0.4 0.8c0 0 0.3 0.3 0.4 0.4 0.1 0.1 0.3-0.5 0.3-0.5l0.2-0.5 0.4-0.3v-0.3l0.4-0.1v0.7c0 0 0.2-0.2 0.3-0.3 0.2 0 0.5-0.3 0.7-0.5 0.1-0.1 0.3-0.4 0.3-0.5 0-0.1 0.2-0.4 0.2-0.4l-0.1-0.4c0 0-0.5-0.5-0.5-0.6 0-0.1-0.1-0.7-0.1-0.7l-0.2 0.5-0.5 0.4-0.1 0.4v0.3l-0.2 0.4c0 0-0.1 0.3-0.2 0.4-0.1 0.1-0.5-0.2-0.5-0.2l-0.4-0.3c0 0 0.2-0.2 0.2-0.3 0-0.1-0.3-0.1-0.3-0.1l-0.4 0.4v-0.6c0 0-0.1-0.4-0.2-0.3-0.1 0.1-0.2-0.4-0.2-0.6v-0.5l-0.1-0.5c0 0 0-0.3 0.1-0.4 0.1-0.1 0.4 0 0.4 0l0.3 0.2c0 0-0.4 0.5-0.4 0.6-0.1 0.2 0.5-0.1 0.5-0.1 0 0 0.5-0.2 0.7-0.3l-0.2-0.3-0.3-0.3h0.3l0.5-0.3h0.3l0.2-0.2 0.3-0.3 0.3-0.2c0 0 0.3-0.6 0.4-0.7 0-0.1 0.1-0.2 0.3-0.4q0.1-0.2 0.1-0.3 0.1 0 0.1-0.1c0.1-0.1 0.3-0.4 0.3-0.4 0 0-0.2-0.2-0.3-0.3-0.1-0.2 0.4-0.4 0.4-0.4l0.3 0.4 0.4 0.5 0.4-0.2h0.4l0.6-0.4c0 0 0.2-0.5 0.2-0.6 0-0.1 0-0.3-0.2-0.5-0.2-0.2-0.4-0.3-0.5-0.3-0.1 0-0.2 0-0.2 0 0 0-0.2 0.3-0.4 0.4-0.1 0.1-0.3-0.1-0.3-0.1l0.2-0.5c0 0-0.3-0.2-0.4-0.3-0.1-0.1-0.2-0.2-0.2-0.2l-0.2-0.5-0.3-0.1-0.5-0.1-0.2 0.1c0 0-0.3 0.2-0.5 0.3-0.1 0-0.3 0-0.3 0 0 0-0.3-0.2-0.6-0.3-0.4 0-0.5 0.1-0.5 0.1v-0.2c0 0-0.3-0.2-0.5-0.3-0.1-0.2-0.1-0.2-0.5-0.3-0.3-0.1-0.4-0.1-0.4-0.1 0 0-0.3-0.5-0.4-0.6-0.2 0-0.4-0.1-0.4-0.1 0 0-0.5-0.2-0.7-0.3q-0.2 0-0.3-0.1-0.1 0-0.1-0.1c-0.1 0-0.4-0.3-0.4-0.3 0 0 0.2-0.4 0.4-0.6q0-0.2 0-0.2c0 0 0 0.1 0-0.1 0-0.2 0-0.2-0.1-0.3q0-0.1 0-0.3-0.1-0.2-0.1-0.2c0 0 0 0.1 0 0 0-0.1 0.1-0.2 0.3-0.3 0.2-0.1 0-0.3 0-0.3 0 0 0.3-0.2 0.4-0.3 0.1-0.1 0.2-0.1 0.2-0.1 0 0 0-0.3 0-0.4 0-0.2 0-0.3 0-0.3v-0.5l0.3-0.2c0 0 0-0.3 0.2-0.6q0-0.1 0-0.1c0 0 0 0.1 0 0 0.1-0.1 0.3-0.2 0.3-0.2v-0.3q0-0.1 0-0.1c0 0-0.1 0.1-0.2 0.1-0.1-0.1 0-0.3 0-0.3v-0.3l-0.1-0.2-0.1-0.1c-0.1-0.1 0-0.3 0-0.3l-0.2-0.3q-1.4-0.4-3-0.4c-6.4 0-11.6 4.9-12.2 11.2q0.1 0.1 0.1 0.1 0.1 0.1 0.2 0.2c0.1 0.3 0.3 0.5 0.4 0.6 0.1 0.1 0.7 0.5 0.9 0.5 0.1 0 0.7 0 0.7 0 0 0 1 0.4 1.3 0.4 0.2 0.1-0.5-0.4-0.5-0.4l-0.3-0.3c0 0-0.3 0-0.5 0-0.1-0.1-0.3-0.2-0.3-0.2v-0.6c0 0 0.5-0.5 0.8-0.7 0.4-0.3 1-0.4 1.1-0.4 0.2 0.1-0.2-0.4-0.2-0.4 0 0-0.4 0.2-0.5 0.3-0.1 0.1-0.1-0.5 0-0.6 0 0 0.1-0.2 0.3-0.4 0.1-0.2 0.2-0.4 0.3-0.4 0-0.2 0.5-0.7 0.7-0.9 0.1-0.1 0-0.4 0-0.4 0 0-0.1-0.9 0-1 0-0.2 0.3-0.6 0.5-0.8 0.1-0.2 0.3-0.4 0.5-0.5 0.1-0.1 0.1-0.2 0.1-0.4q0.1-0.3 0.2-0.5c0.1-0.4 0.3-0.6 0.5-0.6 0.3-0.1 0.9-0.3 0.9-0.3l0.3 0.6c0 0 0.1 0.4 0.2 0.5 0.1 0 0.2 0.3 0.2 0.5q0 0.2 0.1 0.3c0.1 0.3 0 0.6 0 0.6l-0.1 0.3-0.1 0.4v0.7c0 0 0.1 0.1 0.3 0.1 0.1 0 0.3 0.3 0.4 0.5q0 0 0 0c0.1 0.1 0.1 0.2 0.1 0.4-0.1 0.1-0.1 0.3 0 0.5l0.4 0.1 0.4 0.2c0 0 0.3-0.1 0.4-0.1 0.1-0.1 0.1-0.1 0.2-0.1q0.1 0 0.1 0.1h0.5c0 0 0 0 0.2 0.1 0.1 0.1 0.4 0 0.4 0l0.1 0.1q0.2 0.2 0.2 0.3 0.1 0.1 0.1 0.2c0.1 0.1 0.4 0.6 0.4 0.6 0 0 0 0.5 0 0.6q0 0.1 0 0.2c0 0 0 0.1 0 0.1q-0.1 0.1-0.2 0.3-0.1 0.3-0.3 0.5-0.1 0.2-0.2 0.3c0 0.2-0.1 0.3-0.3 0.5-0.1 0.2-0.1 0.2-0.1 0.2 0 0 0 0.1-0.2 0.3-0.1 0.2-0.1 0.2-0.1 0.3 0 0 0.1-0.1 0.1 0.3-0.1 0.6 0.1 0 0.1 0v0.4c0 0 0.1 0.4 0 0.6-0.1 0.1-0.1 0.1-0.2 0 0 0-0.1 0-0.2 0-0.3 0-0.4 0.2-0.4 0.2l0.2 0.3c0 0 0 0.3 0 0.5-0.1 0.2-0.5 0-0.5 0v0.5c0 0-0.5 0.5-0.8 0.7-0.2 0.1-0.7 0-0.7 0h-0.4c0 0-0.6 0.6-0.6 0.7-0.1 0.1-0.2 0.2-0.3 0.3q-0.2 0.1-0.3 0.3c-0.2 0.2 0.3 0 0.3 0l0.6 0.2c0 0-0.3 0.9-0.1 1 0 0 0.1-0.1 0.1-0.2 0.1-0.2 0.2-0.3 0.3-0.4 0.1-0.1 0-0.6 0-0.6-0.1 0 0.4-0.9 0.4-0.9l0.5 0.3h0.1c0.1-0.1 0.4 0.2 0.5 0.4 0.1 0.1 0 0.4-0.2 0.6-0.1 0.1-0.6 0.7-0.6 0.9q-0.1 0.1-0.1 0.2-0.1 0.2-0.2 0.4c0 0.2-0.2 0.3-0.4 0.4q-0.1 0.1-0.2 0.1c-0.2 0.2-0.5 0.1-0.5 0.1 0 0-0.2-0.2-0.4-0.3-0.2-0.1-0.4-0.2-0.4-0.2 0 0-0.3-0.1-0.3-0.2-0.1-0.2-0.5 0-0.5 0 0 0-0.5 0.2-0.7 0.3-0.3 0.1-0.3 0.2-0.3 0.2q0 0 0 0c0.1 0.1 0.2 0.3 0.3 0.3 0.2 0.1 0.7 0.5 0.7 0.5 0 0 0 0.2 0 0.4q0 0 0 0.2c0 0.1 0.1 0.2 0 0.3 1.5 0.9 3.1 1.6 4.9 1.8q0 0 0.1-0.1zm-6.1-3.2c-0.1 0.1-0.2 0.3-0.3 0.4q0.5 0.4 1 0.8c-0.1-0.3-0.4-0.9-0.4-0.9zm3.4-6.8l0.3-0.3c0 0 0.2 0.2 0.1 0.3q0 0.1-0.1 0.1c0 0-0.1 0 0 0.2 0.1 0.1 0.4 0.4 0.4 0.4h0.3c0 0 0.5 0.2 0.6 0q0.1-0.1 0.1-0.2c0.1-0.2 0.2-0.4 0.3-0.5 0.2 0 0.9-0.6 0.5-0.5-0.3 0.1-0.5 0.2-0.5 0.2-0.4 0.1-0.6 0.1-0.7 0q0 0 0 0-0.1 0-0.2 0c-0.2 0-0.5-0.1-0.5-0.2-0.1-0.1-0.6-0.5-0.6-0.5l-0.4-0.2-0.4 0.3-0.3-0.1h-0.7c0 0-0.5 0.2-0.6 0.3 0 0.1-0.2 0.5-0.2 0.5h1l0.5 0.5h0.3l-0.1-0.5 0.6 0.2zm-1.8 1.3c0.2-0.1 0.4-0.3 0.4-0.3l-0.2-0.2c-0.3 0-0.6 0-0.6 0h-0.6l-0.2 0.2c0 0 0.4 0.2 0.5 0.3 0 0.1 0.2 0.5 0.2 0.5l0.2-0.5c0 0 0.2 0.1 0.3 0zm-1.2-3.4c0.1 0.2 0.3 0.5 0.3 0.5h0.3c0 0 0-0.8-0.1-0.9-0.2-0.1-0.5-0.5-0.6-0.7-0.2-0.2-0.5-0.6-0.5-0.6 0 0-0.1 0.3 0 0.7 0.1 0.2 0.2 0.4 0.4 0.6q0.1 0.2 0.2 0.4z"/><path fill-rule="evenodd" class="a" d="m34.3 23c0 0-0.9-5.8 0.5-8.2 0.4-0.8 1.3-1.5 2.2-1.7 0.9-0.3 2-0.1 2.8 0.4 0.8 0.5 1.5 1.3 1.7 2.2 0.3 0.9 0.2 1.9-0.3 2.8-1.4 2.4-6.9 4.5-6.9 4.5zm1.7-5.8c0.2 0.5 0.5 0.9 0.9 1.2 0.5 0.3 1 0.3 1.6 0.2 0.5-0.1 0.9-0.5 1.2-0.9 0.2-0.5 0.3-1 0.2-1.5-0.2-0.5-0.5-1-1-1.2-0.9-0.6-2.1-0.3-2.7 0.7-0.3 0.4-0.3 1-0.2 1.5z"/></svg>