<svg version="1.2" xmlns="http://www.w3.org/2000/svg" viewBox="0 0 58 58" width="58" height="58"><defs><linearGradient id="P" gradientUnits="userSpaceOnUse"/><linearGradient id="g1" x2="1" href="#P" gradientTransform="matrix(0,25.808,-22.701,0,29.343,15)"><stop stop-color="#fd8c4d"/><stop offset="1" stop-color="#fd6c4d"/></linearGradient></defs><style>.a{fill:#fff}.b{fill:url(#g1)}</style><path class="a" d="m12-1h34c6.6 0 12 5.4 12 12v34c0 6.6-5.4 12-12 12h-34c-6.6 0-12-5.4-12-12v-34c0-6.6 5.4-12 12-12z"/><path fill-rule="evenodd" class="b" d="m22.5 15h13.6c0.6 0 1.1 0.5 1.1 1.1v1.9c5 0.8 4.5 9.5-0.6 9.6-1.1 2.5-3.3 3.9-5.6 4.4v4.3h1.8c0.3 0 0.5 0.4 0.6 0.7l0.8 3.2c0.1 0.3-0.3 0.6-0.6 0.6h-8.4c-0.4 0-0.8-0.3-0.7-0.6l0.8-3.2c0.1-0.3 0.3-0.7 0.7-0.7h1.7v-4.3c-2.3-0.5-4.5-1.9-5.6-4.4-5.1-0.1-5.6-8.8-0.6-9.6v-1.9c0-0.6 0.5-1.1 1-1.1zm6.5 4.1l-0.8 2.5h-2.5c-0.8-0.1-1 0.2-0.3 0.6l2.1 1.6-0.8 2.4c-0.2 0.8-0.1 1 0.6 0.4l2.1-1.4 2 1.4c0.6 0.5 0.9 0.4 0.6-0.4l-0.8-2.5 2-1.5c0.8-0.4 0.8-0.7-0.1-0.7h-2.6l-0.8-2.3c-0.2-0.9-0.5-0.9-0.7-0.1zm8.2 0.5v6.4c2.6-0.8 2.6-5.6 0-6.4zm-15.7 6.4v-6.4c-2.7 0.8-2.7 5.6 0 6.4z"/></svg>