<svg version="1.2" xmlns="http://www.w3.org/2000/svg" viewBox="0 0 58 58" width="58" height="58"><defs><linearGradient id="P" gradientUnits="userSpaceOnUse"/><linearGradient id="g1" x2="1" href="#P" gradientTransform="matrix(0,22.775,-14.27,0,23.135,18)"><stop stop-color="#fd8c4d"/><stop offset="1" stop-color="#fd6c4d"/></linearGradient><linearGradient id="g2" x2="1" href="#P" gradientTransform="matrix(0,13.408,-16.066,0,35.82,27.314)"><stop stop-color="#fd8c4d"/><stop offset="1" stop-color="#fd6c4d"/></linearGradient></defs><style>.a{fill:#fff}.b{fill:url(#g1)}.c{fill:url(#g2)}</style><path class="a" d="m13 0h34c6.6 0 12 5.4 12 12v34c0 6.6-5.4 12-12 12h-34c-6.6 0-12-5.4-12-12v-34c0-6.6 5.4-12 12-12z"/><path fill-rule="evenodd" class="b" d="m29.2 35.6v4.5q0 0.3 0.1 0.6h-4.1v-4.2c0-0.2-0.2-0.4-0.4-0.4h-3.2c-0.2 0-0.4 0.2-0.4 0.4v4.3h-4.3c-0.5 0-0.9-0.5-0.9-1v-20.9c0-0.5 0.4-0.9 0.9-0.9h12.4c0.6 0 1 0.4 1 0.9v11.9l-3.2 2.9c-0.3 0.3-0.5 0.7-0.3 1.2 0.2 0.4 0.5 0.6 1 0.6l1.3 0.1zm-10.7-9.7c0 0.2 0.2 0.3 0.3 0.3h2.9c0.2 0 0.3-0.1 0.3-0.3v-2.9c0-0.2-0.1-0.3-0.3-0.3h-2.9c-0.1 0-0.3 0.1-0.3 0.3zm3.5 3.4c0-0.2-0.1-0.3-0.2-0.3h-2.9c-0.2 0-0.3 0.1-0.3 0.3v2.9c0 0.1 0.1 0.3 0.3 0.3h2.9c0.1 0 0.2-0.2 0.2-0.3zm2.3-6.4v3c0 0.1 0.2 0.2 0.3 0.2h2.9c0.1 0 0.3-0.1 0.3-0.2v-3c0-0.1-0.2-0.2-0.3-0.2h-2.9c-0.2 0-0.3 0.1-0.3 0.2zm3.2 9.6c0.1 0 0.3-0.2 0.3-0.3v-2.9c0-0.2-0.2-0.3-0.3-0.3h-2.9c-0.1 0-0.3 0.1-0.3 0.3v2.9c0 0.1 0.2 0.3 0.3 0.3z"/><path fill-rule="evenodd" class="c" d="m43.9 34.5l-2.3 0.2v5.4c0 0.3-0.3 0.6-0.6 0.6h-3.4v-3.1c0-0.4-0.3-0.7-0.7-0.7h-2c-0.4 0-0.7 0.3-0.7 0.7v3.1h-3.4c-0.4 0-0.6-0.3-0.6-0.6v-5.5l-2.4-0.1 7.7-7.1q0.2-0.1 0.4-0.1 0.2 0 0.3 0.1l3 2.9v-2.1h2.3v4.2zm-6.5-1.8c0-0.3-0.2-0.5-0.5-0.5h-1.9c-0.2 0-0.4 0.2-0.4 0.5v0.5c0 0.3 0.2 0.5 0.4 0.5h1.9c0.3 0 0.5-0.2 0.5-0.5z"/></svg>