<svg version="1.2" xmlns="http://www.w3.org/2000/svg" viewBox="0 0 58 58" width="58" height="58"><defs><linearGradient id="P" gradientUnits="userSpaceOnUse"/><linearGradient id="g1" x2="1" href="#P" gradientTransform="matrix(0,22.8,-19.202,0,31.306,18.963)"><stop stop-color="#fd8c4d"/><stop offset="1" stop-color="#fd6c4d"/></linearGradient><linearGradient id="g2" x2="1" href="#P" gradientTransform="matrix(0,10.679,-11.063,0,23.545,15)"><stop stop-color="#fd8c4d"/><stop offset="1" stop-color="#fd6c4d"/></linearGradient></defs><style>.a{fill:#fff}.b{fill:url(#g1)}.c{fill:url(#g2)}</style><path class="a" d="m12-1h34c6.6 0 12 5.4 12 12v34c0 6.6-5.4 12-12 12h-34c-6.6 0-12-5.4-12-12v-34c0-6.6 5.4-12 12-12z"/><path class="b" d="m40.7 30.6l-2.1-3.3q-0.2-0.3-0.2-0.6c-0.4-4.1-3.5-7.3-7.5-7.7 0.1 0.8-0.3 1.7-0.9 2.2l-1.4 1.2 0.4 1.9c0.2 0.8 0 1.6-0.5 2.2-0.5 0.6-1.2 1-2.1 1q-0.7 0-1.3-0.3l-1.6-1-1.6 1q-0.1 0.1-0.2 0.1 0 0.1 0 0.1c0 2.8 1.3 5.5 3.4 7.3q0.4 0.3 0.4 0.9v5.4c0 0.4 0.3 0.7 0.6 0.8h7.3c0.4 0 0.8-0.3 0.8-0.8v-3.4c0-0.2 0.2-0.4 0.4-0.4h2.5c0.7 0 1.4-0.7 1.4-1.4v-3.5c0-0.1 0.1-0.2 0.2-0.2h1.3c0.7 0 1.2-0.9 0.7-1.5z"/><path class="c" d="m24 24.3l2.1 1.3c0.6 0.3 1.3-0.2 1.2-0.9l-0.6-2.4c-0.1-0.3 0-0.6 0.2-0.8l1.9-1.6c0.5-0.5 0.3-1.4-0.4-1.4l-2.5-0.2c-0.3 0-0.6-0.2-0.7-0.5l-0.9-2.3c-0.3-0.7-1.2-0.7-1.5 0l-0.9 2.3c-0.1 0.3-0.4 0.5-0.7 0.5l-2.5 0.2c-0.7 0-1 0.9-0.4 1.3l1.9 1.7c0.2 0.2 0.3 0.5 0.2 0.8l-0.6 2.4c-0.1 0.7 0.6 1.2 1.2 0.9l2.1-1.3q0.4-0.3 0.9 0z"/></svg>