<svg version="1.2" xmlns="http://www.w3.org/2000/svg" viewBox="0 0 64 64" width="64" height="64"><style>.a{fill:#fb9333}.b{fill:#fff}.c{fill:#4d4f56}</style><path class="a" d="m32 0c-4.2 0-8.4 0.8-12.2 2.4-3.9 1.6-7.5 4-10.4 7-3 2.9-5.4 6.5-7 10.4-1.6 3.8-2.4 8-2.4 12.2 0 4.2 0.8 8.4 2.4 12.2 1.6 3.9 4 7.5 7 10.4 2.9 3 6.5 5.4 10.4 7 3.8 1.6 8 2.4 12.2 2.4v-32z"/><path class="b" d="m32 59c-14.9 0-27-12.1-27-27 0-14.9 12.1-27 27-27 14.9 0 27 12.1 27 27 0 14.9-12.1 27-27 27z"/><path class="c" d="m37 32l-6.8 4.3v-8.6z"/></svg>