<svg width="259" height="262" viewBox="0 0 259 262" fill="none" xmlns="http://www.w3.org/2000/svg">
<g id="Shapes">
<path id="path338" fill-rule="evenodd" clip-rule="evenodd" d="M74.2443 120.095C74.8975 119.508 74.2599 120.852 74.9406 120.138C74.8095 119.264 75.5072 117.874 74.968 117.255C74.8565 118.071 74.538 118.026 74.0964 118.755C74.8559 117.797 74.9747 119.491 74.2443 120.095ZM90.8963 125.615C91.1773 125.701 91.1547 125.101 91.4199 125.13C93.2686 126.278 94.7168 128.646 97.4678 128.674C98.3446 130.672 100.481 131.105 101.997 132.054C103.094 132.741 103.813 134.392 105.831 133.322C103.835 131.711 101.31 130.723 99.9325 129.045C97.393 128.323 94.9708 126.103 91.894 124.196C91.8444 123.908 92.6426 123.092 92.4419 122.898C91.9545 123.44 91.5238 123.709 91.1481 123.707C87.1827 120.587 83.6721 118.306 81.0945 116.294C81.0514 115.988 81.9293 114.308 81.0704 115.036C81.1225 115.191 81.0752 116.161 80.7207 116.05C79.5129 114.385 74.1005 112.359 73.1813 109.455C73.2792 109.607 73.1538 109.898 73.0315 110.187C71.0311 108.568 68.4129 108.301 67.5068 106.155C68.6769 108.624 69.8685 111.606 72.8061 111.282C72.6071 111.566 72.4076 111.85 72.2085 112.132C73.741 111.159 73.4265 114.112 74.0485 114.168C77.1388 112.457 76.2075 116.003 78.1558 116.856C79.5614 115.486 80.5287 117.281 80.7188 118.121C83.8817 119.967 87.8114 122.369 90.8963 125.615ZM65.8124 107.532C65.5621 106.883 66.3002 106.767 66.7341 106.478C66.8882 105.648 66.1308 105.415 65.3654 105.582C66.3959 105.529 64.8492 107.427 65.3899 106.84C65.5987 106.97 66.0133 106.099 66.2373 106.151C65.8995 106.652 65.5895 107.015 65.3144 107.205C65.8725 107.001 65.2687 108.243 65.8124 107.532ZM64.2939 107.365C65.5051 104.343 62.3802 104.771 62.0321 102.568C61.5523 103.073 61.1682 103.109 60.8126 103.012C60.3629 102.498 59.5213 100.889 58.3727 101.83C58.8375 102.07 58.4164 102.864 58.6457 103.25C59.3679 102.509 60.5607 103.052 60.5363 103.662C59.7098 104.757 60.3 103.2 59.641 103.903C60.6198 104.373 63.5088 104.671 64.2939 107.365ZM58.323 101.382C57.5 101.232 57.5368 99.3079 56.2573 100.445C57.0631 100.36 57.4925 102.143 58.323 101.382ZM69.8712 107.703C70.2204 107.902 70.9259 107.445 71.0424 106.812C70.7744 106.512 70.3577 106.937 69.8712 107.703ZM66.7869 104.852C67.1049 104.444 67.4785 103.776 67.709 103.799C68.0717 104.368 69.1795 105.272 69.8978 104.821C66.2908 101.242 61.8503 98.4619 59.6967 96.0679C59.837 96.0689 59.9477 96.2211 60.1451 95.9465C59.8924 95.3442 59.323 96.282 58.9244 96.3912C58.1339 94.5718 55.8292 93.9734 55.0714 92.5543C55.193 92.2771 55.0028 92.196 54.8695 92.0791C54.9103 92.2523 54.991 92.4026 55.0714 92.5543C55.0323 92.6419 54.9619 92.7514 54.8431 92.8903C53.7436 91.7402 52.8622 92.5736 53.0023 90.8556C52.2665 91.9248 52.071 90.352 51.3352 91.4195C55.1965 95.2978 62.2807 99.1382 66.3395 102.904C66.0251 103.813 65.4054 103.093 65.6164 103.675C66.2544 103.072 65.6791 104.562 66.4382 103.797C66.5914 102.028 66.9862 103.788 66.7869 104.852ZM36.177 82.7386C35.5858 83.739 36.4003 83.5686 36.9242 83.2275C36.577 82.8597 36.9499 82.0443 36.2034 81.9256C35.8112 82.3823 35.8772 82.7744 35.6055 82.7772C35.03 82.7116 36.2571 81.5214 35.581 81.5189C35.2393 82.0385 34.9907 82.1022 34.808 81.8433C33.7748 83.4586 35.0485 83.9976 36.177 82.7386ZM31.9463 79.9679C31.95 80.9464 33.0842 81.8477 33.9118 82.0831C34.5879 79.1136 31.5665 80.8727 31.9978 78.3446C31.6962 78.6672 31.4294 78.8192 31.2259 78.6663C30.1235 80.28 31.2215 80.2505 31.9463 79.9679ZM37.9474 80.9954C37.3258 81.0657 37.9576 80.3521 37.8469 80.1039C37.4497 80.6655 37.2549 80.2416 36.8014 81.0758C37.1659 81.5289 37.1161 81.8043 37.9474 80.9954ZM48.8703 88.9786C46.0488 87.0644 44.1765 84.273 40.7827 83.6837C43.1415 85.4549 45.3164 87.6509 48.8703 88.9786ZM51.4576 93.5727C51.393 93.5069 51.3398 93.4332 51.5323 93.2067C51.7346 93.3641 52.0041 93.198 52.3041 92.885C51.9963 92.3232 51.4321 93.0069 50.9599 93.2465C51.3819 93.1274 50.7785 94.3679 51.4576 93.5727ZM50.265 89.0639C49.6304 89.8625 49.3764 88.8114 48.7961 89.3449C48.9906 89.5945 48.7278 90.1298 48.6949 90.5222C50.4068 89.6934 49.6403 91.7894 51.4087 91.0562C51.5369 89.7953 48.9511 90.2843 50.265 89.0639ZM65.6965 97.098C65.5656 96.8425 65.9789 96.7493 66.2944 96.2464C65.3015 96.6747 66.6652 95.1149 65.7471 95.4741C65.8948 95.8021 65.6997 96.0889 65.2726 96.407C65.3907 96.568 65.3039 97.6292 65.6965 97.098ZM43.3774 77.9235C43.7671 77.6285 44.2363 76.9461 44.5472 77.0337C43.6125 78.4564 45.2386 78.5989 45.619 77.3195C44.7809 78.0951 44.2669 75.3255 42.3836 75.2013C41.6959 77.3111 42.8337 76.9991 43.3774 77.9235ZM37.1575 71.7783C36.6708 71.6732 36.6395 69.8946 35.9135 70.9637C35.9021 71.3804 36.2169 72.9817 37.1575 71.7783ZM34.2454 69.4578C34.3851 68.8416 33.7862 68.7788 33.3001 69.2518C33.4702 69.6546 33.6151 69.8668 34.2454 69.4578ZM33.3739 68.8888C33.5265 68.0986 32.6751 67.1031 31.8322 67.4628C32.4121 68.1111 32.4708 69.2143 33.3739 68.8888ZM107.363 114.854C106.842 113.847 106.329 113.169 105.372 113.55C105.42 114.268 106.654 115.078 107.363 114.854ZM104.999 113.306C104.81 113.091 104.689 112.034 104.004 112.654C103.923 113.037 104.48 113.823 104.999 113.306ZM115.776 119.947C116.259 120.848 117.521 120.931 118.34 121.213C117.758 120.559 117.218 119.923 115.776 119.947ZM111.296 117.014C110.085 116.32 108.909 114.946 107.413 115.3C109.221 116.033 109.547 117.345 111.296 117.014ZM55.2001 83.5934C55.3823 83.8128 55.6774 85.2507 56.5183 84.0452C55.7607 83.9257 56.0887 82.7901 55.2001 83.5934ZM46.0666 77.1993C45.4006 78.0466 45.8545 78.7467 46.4896 77.8897C46.6681 77.0986 45.9122 77.8762 46.0666 77.1993ZM36.8825 72.4292C38.658 72.4335 38.9418 75.0329 41.1388 74.3862C39.5995 73.6944 39.2945 71.5491 36.8825 72.4292ZM49.7246 80.0095C48.4431 79.5609 48.0455 77.2373 46.2141 78.5404C47.6066 78.752 47.8111 81.6359 49.7246 80.0095ZM80.6126 95.2638C80.4794 94.4449 79.5382 94.1298 79.7927 93.0697C80.5313 94.0057 82.2274 95.7182 83.3515 94.9857C81.3211 93.0445 78.8417 92.3689 77.3551 89.8164C77.4816 89.5781 77.7447 89.2546 77.6284 89.1678C77.3635 89.5451 77.0968 89.9247 76.8311 90.3032C76.757 89.6262 75.7039 88.7155 74.8909 89.445C75.203 91.3857 76.8801 92.5407 78.0744 93.188C78.1297 93.0091 77.7644 92.3724 78.2242 92.4564C78.672 93.5059 79.5952 95.1003 80.6126 95.2638ZM72.1267 88.4643C72.8204 88.1239 72.3337 89.2329 73.0729 88.6709C72.9418 88.4686 73.4067 87.1075 72.8489 87.6964C72.9037 87.8209 72.8277 88.0278 72.576 88.3435C72.4159 88.2075 72.0555 88.095 72.1267 88.4643ZM71.8781 88.3022C72.1439 87.9237 72.4096 87.5453 72.6759 87.1672C70.8126 84.8283 69.0677 84.4638 66.7299 82.4428C67.2563 86.3358 70.7321 85.0088 71.8781 88.3022ZM66.2314 82.1178C66.0487 81.2848 63.3318 81.1822 64.5141 80.1661C64.6365 79.7845 62.8496 80.38 62.92 80.3646C63.723 81.1318 65.119 82.9866 66.2314 82.1178ZM62.1741 79.8749C62.4432 79.4827 62.6704 79.2917 62.8968 79.1055C62.7818 78.7546 63.0524 77.7789 62.2744 78.6988C62.469 78.9484 62.2066 79.4839 62.1741 79.8749ZM84.499 92.8373C84.1595 91.828 82.7096 91.5131 83.2553 89.9521C83.4589 90.1086 83.7288 89.941 84.0267 89.63C82.8543 90.2959 84.5801 88.2346 83.605 88.9387C82.964 89.7666 81.5882 87.7253 80.8922 88.4035C81.1124 90.6392 82.3869 92.8515 84.499 92.8373ZM89.6027 94.1072C89.5581 91.4694 88.3559 94.1972 87.064 92.0311C86.7051 93.4877 89.0269 93.83 87.0848 95.3613C88.7692 94.1698 89.3887 98.1436 91.0173 97.5219C91.1515 96.8021 90.4752 96.5879 91.1444 95.5332C91.0455 95.9476 91.6454 96.0111 92.091 95.7365C91.0695 95.3675 90.851 93.4832 89.6027 94.1072ZM92.0158 96.1022C92.3919 96.1032 92.586 96.9887 93.0863 96.3889C92.7392 95.959 92.7898 95.3909 92.0158 96.1022ZM143.686 122.894C145.657 123.611 145.361 124.542 147.319 124.446C146.816 123.545 145.342 121.541 143.686 122.894ZM153.691 127.79C153.323 127.436 152.528 127.35 152.646 126.691C152.221 127.912 152.811 128.425 153.691 127.79ZM96.8501 89.7401C95.5041 89.1671 95.6325 87.2771 94.287 88.4749C95.0897 88.1184 95.7085 90.828 96.8501 89.7401ZM85.7779 80.418C85.9774 80.1343 86.1776 79.8494 86.3762 79.5668C86.3647 79.0893 85.2996 79.0374 85.7311 77.8995C84.3648 79.589 84.2399 76.8314 82.9669 76.9205C82.7095 79.1109 85.0233 78.8573 85.7779 80.418ZM82.0712 77.1606C82.4098 74.6372 79.61 75.6378 80.1076 72.9742C82.2943 74.128 83.4208 76.5648 86.3782 77.4955C86.3424 77.0931 85.8255 76.9912 86.0304 76.4394C87.4937 76.4476 87.3757 77.6412 87.3479 78.9598C87.7991 78.1399 87.9906 78.5793 88.3192 78.3525C88.2103 79.2344 88.1407 80.5959 89.2894 79.817C86.7828 73.9601 78.3887 68.6572 74.4101 66.3444C76.3996 68.9389 78.8113 69.0345 79.9584 71.6354C78.2416 72.418 78.7791 68.8959 76.4493 70.1655C77.3588 70.3228 77.8197 71.9345 78.5378 72.3635C79.0268 71.4943 79.7167 73.3733 78.2877 74.2695C79.4786 75.0567 81.2744 76.1224 82.0712 77.1606ZM75.4039 69.0666C74.479 67.439 73.4499 67.4005 72.1693 66.9473C73.2299 68.3237 73.7985 69.8561 75.4039 69.0666ZM64.7283 61.2463C64.3711 61.1522 63.9877 61.1869 63.5084 61.6897C63.8643 62.0069 64.1492 63.1903 65.0014 62.6684C65.077 61.9528 64.186 61.8409 64.4045 61.4499C64.4906 61.4831 64.5811 61.5035 64.7283 61.2463ZM62.5614 61.4861C63.652 60.0435 63.1957 61.6595 63.5831 61.3255C63.441 61.1241 63.9339 60.6471 64.1815 60.4743C62.7854 60.5747 63.2907 59.127 61.3926 60.3059C61.3673 59.5251 60.1746 59.4744 60.8213 58.2738C60.2174 58.7033 60.5793 58.6427 60.0248 59.408C60.8336 59.646 60.8159 60.4012 61.1176 60.955C62.1424 59.4244 62.274 61.1416 62.5614 61.4861ZM59.2285 58.4732C58.1981 58.2401 58.7866 56.8751 58.008 56.8472C58.1956 57.4739 57.3924 58.7171 57.8071 59.2025C58.5102 57.4824 58.2071 59.3646 59.2285 58.4732ZM91.2073 79.4148C91.3917 82.3733 94.0786 82.9468 95.5595 84.3381C95.3271 84.0703 95.8062 83.3931 96.2334 83.1196C94.6062 81.5738 93.1266 79.835 91.2073 79.4148ZM67.863 64.542C68.1281 64.6216 67.8625 66.072 68.1609 65.1534C68.0966 65.0861 68.0443 65.0131 68.2364 64.7863C68.751 64.9434 68.8554 65.3559 69.0322 65.7225C69.7855 64.7138 68.2769 64.2945 67.863 64.542ZM71.4782 58.6239C71.6692 57.7048 70.7604 58.6306 70.4074 58.3368C70.5182 58.1798 70.5323 57.9499 70.2835 58.2552C70.1221 59.2791 70.7149 58.9429 71.4782 58.6239ZM84.1468 128.238C83.2485 128.828 83.7635 128.503 82.9761 129.129C80.1416 126.178 78.2383 125.003 75.4367 122.534C75.6225 122.319 75.7601 122.334 75.9599 122.049C75.5073 121.991 74.0781 122.585 74.6672 120.785C74.405 120.917 74.1154 121.179 73.819 121.475C73.7054 121.333 74.0786 120.888 74.293 120.542C74.1547 120.53 73.9693 120.745 73.8458 120.662C73.2925 120.718 74.0518 121.189 73.247 121.513C72.5342 120.71 73.514 119.62 71.8775 120.618C71.4006 120.047 71.6533 118.758 70.584 119.357C70.4371 119.028 70.6319 118.741 71.0585 118.422C69.7812 119.052 69.7684 117.872 68.8679 117.403C69.2166 117.077 69.5054 117.049 69.7645 117.162C70.3501 116.12 69.0014 116.917 69.4918 115.74C70.0716 115.707 70.6704 115.087 70.7609 115.744C71.1321 113.708 68.5504 112.778 67.627 112.447C68.1601 112.32 68.4554 110.882 67.7013 112.082C67.663 111.682 68.2294 110.904 68.0019 110.622C68.5236 109.898 68.8662 110.595 69.0479 109.65C68.6816 109.297 68.211 110.873 67.6277 110.378C67.5135 110.926 67.8821 111.174 67.1298 112.121C66.9909 111.878 66.7383 112.189 66.4801 112.527C66.4099 111.62 67.7976 111.7 67.3548 111.025C66.5452 111.722 65.3322 111.34 64.8141 111.021C65.4198 112.775 67.2179 112.278 67.6998 114.152C66.4167 115.757 66.2472 114.374 66.2564 113.622C65.8879 113.48 66.0838 114.221 65.4586 114.757C65.4443 114.487 64.6029 114.081 64.4637 114.104C64.4891 113.148 65.3751 113.721 65.7592 113.296C65.5416 113.056 65.0358 111.444 63.468 113.452C63.6944 112.78 64.1447 111.969 63.8433 111.627C63.7205 111.915 63.5947 112.206 63.6926 112.358C62.9208 112.617 64.1926 110.808 64.8893 110.655C63.9965 108.837 60.8522 107.2 58.5199 105.24C57.3833 104.287 55.893 103.446 55.1849 102.229C54.7435 101.469 52.3508 100.174 50.9542 99.4585C50.8471 99.261 51.3511 98.6798 51.6268 98.2426C49.68 99.3244 49.6001 96.8337 47.4952 96.3643C47.383 96.2234 47.7544 95.7784 47.9693 95.4329C47.8243 95.1441 46.8202 95.9555 47.6711 94.8229C45.2504 95.7644 44.4485 93.3129 43.1657 92.7017C42.9862 92.614 42.4883 93.0786 42.5187 93.1057C42.2779 92.8924 42.5881 91.7955 42.1208 91.6031C41.5727 91.3759 41.4583 91.1357 41.0763 90.5031C40.7312 89.9341 39.9526 88.8841 39.7328 88.796C39.5603 88.7258 39.1615 89.3965 38.9605 89.1192C38.8001 88.8941 39.2141 88.3694 39.1817 88.0866C39.0702 88.2006 38.0216 87.6219 37.4188 87.6933C38.3342 86.6478 35.4857 86.4065 34.8309 85.1714C35.3065 84.6392 35.5952 84.8602 35.7522 84.1176C34.7547 84.0751 33.7326 85.5206 34.0606 83.4233C32.667 84.2223 32.7832 83.3456 31.7958 82.7682C32.1927 82.2063 32.3878 82.6306 32.8413 81.7964C31.9213 82.7515 32.3462 81.1484 31.3737 82.0766C31.2963 81.9518 31.4703 81.6783 31.621 81.5605C30.1759 82.1537 29.2179 80.5895 28.5854 79.8378C29.2713 79.1594 29.2238 78.7717 29.6323 78.8652C29.5426 78.2641 28.8869 77.4177 29.9568 76.5948C29.5414 76.8021 29.412 76.7184 29.4599 76.2674C29.1777 76.5985 29.1607 76.7659 29.2224 76.883C28.1411 75.4241 26.4084 73.6284 25.9018 72.2809C25.3378 72.9719 25.6681 72.3677 24.8814 72.4406C25.1544 72.2522 25.4649 71.888 25.8035 71.3875C25.4475 71.2854 24.7854 72.6829 24.5085 72.1948C25.7948 70.1511 23.0788 71.6011 23.7381 70.4486C23.5594 70.3988 23.2688 70.8981 23.0155 71.218C22.8266 70.4019 22.5038 70.4782 21.5217 70.2404C23.3783 69.6842 21.768 69.4944 21.0983 69.5498C21.4713 68.8766 21.6203 69.3015 21.9461 68.8611C22.1116 68.2117 21.7854 67.564 20.9994 68.6559C21.3825 66.895 20.653 66.4525 20.3558 64.9189C21.7279 64.1543 22.8675 64.6434 24.3391 65.4575C24.6115 65.4535 24.5443 65.0623 24.937 64.6058C27.1721 65.1188 28.336 67.1541 30.8366 66.812C29.1347 63.1009 24.8737 62.1643 22.6264 59.362C23.9887 59.1361 24.482 59.2033 25.7877 59.7758C26.2477 58.9055 25.2592 58.9387 25.3903 58.2736C25.9003 57.8532 26.1958 58.4754 26.6599 58.2763C25.6177 56.2003 23.5672 55.6257 21.534 53.6771C22.1388 52.5656 22.2328 53.943 22.9051 52.503C26.5425 55.5117 31.6097 54.626 32.5108 57.9662C31.9687 58.5449 31.7357 57.619 31.3173 57.5966C31.4859 59.5198 33.1783 60.1436 34.4513 60.8936C38.0111 62.9882 41.6114 65.0033 45.0541 67.0069C45.2438 66.7285 45.0571 66.6855 45.0036 66.5601C49.3683 67.6633 54.8811 71.2153 57.5724 74.7889C57.9014 74.5624 58.0934 75.0021 58.5428 74.1828C58.5784 76.272 60.373 76.0287 61.7027 76.6682C65.1066 78.2992 67.4509 82.3157 70.7623 83.4271C69.4312 84.582 71.0652 83.7773 71.6329 83.9973C73.902 84.8813 76.297 87.9849 78.7001 89.4537C79.0438 87.181 75.6716 87.3503 75.4166 84.8178C75.8685 83.9896 75.86 85.4056 76.3127 84.5762C75.8407 81.1967 72.143 82.4002 71.6623 79.0447C71.2906 79.2158 71.3866 79.5459 70.814 79.7331C67.1249 78.2071 62.8774 73.9882 59.2187 70.8967C58.7855 70.5296 57.8448 71.116 57.25 70.8518C52.2517 68.6263 50.3878 63.1018 45.6797 61.2033C48.442 61.7845 49.5458 63.7376 52.7985 65.0363C52.9771 65.086 53.2674 64.5865 53.5211 64.2651C55.1 65.332 55.0321 66.5614 56.283 67.3169C62.3216 70.9736 68.7088 76.254 76.3673 78.8133C76.9922 78.8929 77.0716 77.8264 77.6135 77.5569C77.9801 79.6699 80.5075 78.9044 80.15 81.7039C80.6651 81.6693 80.3683 80.847 80.3749 80.6083C82.176 80.494 81.5066 84.494 83.8083 84.5125C84.3033 83.5143 83.5609 83.2884 83.8094 82.4424C83.9214 82.1814 84.6556 82.8547 84.481 83.2966C85.8063 82.0684 87.3378 84.3314 88.1644 85.295C89.3261 84.0491 90.2857 87.12 91.8239 86.0335C88.931 83.1616 83.9853 81.4521 81.548 77.6462C81.1617 78.1001 81.2677 78.2471 81.3969 78.377C80.7551 78.5697 80.4276 78.1662 80.9256 77.2396C80.4672 76.8685 80.6588 77.7008 80.0791 77.9273C79.902 77.4201 79.9133 77.2024 79.8547 76.9525C78.1739 77.0303 77.6692 75.1845 76.8939 74.1848C74.9619 72.3052 77.3897 75.0128 78.5631 73.6206C76.6147 71.1515 72.6386 69.955 71.0725 67.4735C72.0175 65.9889 71.517 67.7563 72.2424 66.5836C71.6633 65.4436 70.4434 65.3787 69.83 64.5874C69.3426 65.6355 70.5643 65.6163 69.6283 66.9439C68.5367 66.482 67.706 65.2828 66.8922 65.1496C68.3586 63.1105 66.3325 62.7063 65.2732 64.0914C64.5156 64.1922 65.5825 63.1539 65.0506 63.116C64.8452 63.0827 64.5282 63.5968 64.6512 63.6832C62.7567 62.9147 58.5286 60.5352 57.0612 58.7128C57.0252 58.4168 57.2564 57.9531 57.6104 57.4138C57.076 57.4169 57.0418 58.3771 56.6127 58.8324C55.9517 57.5181 54.4604 57.9521 54.5225 56.6367C55.1824 55.4917 55.3648 56.6605 55.7932 56.6385C55.9774 55.9136 55.3902 56.2575 56.342 55.3411C53.2211 53.6942 52.4933 53.1801 49.9958 51.1851C52.9083 50.4199 53.704 53.6881 56.2187 53.189C56.7737 54.6975 58.2421 54.3183 59.0065 55.4275C59.3746 55.5703 59.179 54.8276 59.8043 54.2924C60.4183 54.2327 60.1038 54.4518 60.5506 54.7825C61.1722 54.0759 60.6784 54.0652 60.7752 53.6866C61.3974 53.0195 60.9378 54.5906 61.7213 53.8915C61.8965 52.2998 59.5325 54.3182 59.1579 52.6278C59.4413 52.0309 58.9248 52.1871 59.6311 51.6958C58.9746 51.3625 59.0411 50.5764 58.2132 50.3514C57.6656 50.0019 58.5359 49.8485 58.6625 50.2307C59.9536 50.7963 62.0979 50.7198 62.0206 52.4314C63.181 51.86 62.5346 53.1479 63.3405 52.8808C63.1593 53.4123 62.6321 54.1385 62.0938 54.1369C63.388 56.7294 66.4027 57.3741 68.6147 58.8197C69.0995 56.5113 66.1391 57.5391 66.2522 55.2008C67.5763 55.1964 68.2523 56.1304 69.189 56.7105C68.3045 57.508 69.4722 58.0937 70.0344 58.0929C70.3052 58.0913 70.2409 57.6968 70.6323 57.2413C71.1126 58.25 72.1369 57.9367 73.121 58.8709C72.9808 59.3304 72.4974 60.0044 72.6962 60.2517C73.764 58.192 72.7968 61.1895 73.8914 60.6189C71.6059 62.2936 72.9702 58.6615 71.3284 59.3538C71.9291 61.4141 72.5795 63.2149 74.6357 63.1784C75.1402 62.4394 74.3139 62.5302 75.2613 61.5148C76.1906 62.1271 76.3707 62.8266 77.5006 62.9817C77.1913 63.3415 77.0231 63.013 76.8022 62.9401C76.7634 65.2943 78.6564 66.4652 80.2104 67.6565C80.792 67.3086 80.7962 66.757 80.7588 66.3587C81.3315 65.6366 81.5738 66.5176 82.1038 65.996C82.4469 70.4226 87.9761 69.5265 88.0749 74.0482C88.4139 73.4876 88.8176 73.8211 89.5685 72.9564C90.5813 73.5076 90.8563 74.8796 92.5804 74.1005C92.5676 76.0253 95.968 75.1491 94.5936 78.7331C97.2905 77.266 98.19 78.3102 99.822 80.0835C99.5063 80.4742 99.3794 79.9407 99.0489 80.4079C99.3007 81.2583 100.224 81.6901 100.765 82.3607C101.19 81.4059 100.256 81.2989 99.7956 80.8964C100.909 79.4843 100.582 81.0601 101.439 81.1422C100.322 84.3451 103.26 84.3535 104.747 84.9675C104.963 84.3558 104.255 84.3196 104.275 83.8306C106.194 83.4329 106.32 85.841 107.835 85.7461C107.568 86.1254 107.303 86.5027 107.037 86.8812C108.983 89.1278 111.112 89.6839 113.906 90.5509C114.3 90.5753 114.066 90.01 114.63 89.7807C117.515 91.4829 120.225 94.1719 123.813 94.552C123.873 94.2093 122.421 94.1116 123.491 92.6841C123.674 93.4411 124.941 94.1279 124.733 95.5699C127.912 97.1485 131.875 98.4615 135.187 100.345C137.928 101.901 141.119 102.768 143.824 104.343C149.159 107.448 152.879 111.152 157.287 114.401C158.569 115.347 159.557 116.496 159.623 118.832C157.492 121.207 156.798 119.903 155.016 119.958C154.989 120.665 154.541 121.635 155.014 122.029C154.856 122.179 153.938 122.917 154.217 123.165C151.933 125.555 151 123.575 149.212 124.856C149.062 126.613 151.113 125.787 152.123 127.177C152.519 126.135 152.1 125.6 151.551 125.146C153.344 124.777 154.722 126.708 155.184 128.767C153.811 129.716 154.218 128.052 152.72 128.396C152.071 129.906 151.123 129.828 150.476 131.071C150.471 131.711 150.988 132.026 151.322 132.453C150.763 132.656 149.997 133.863 149.503 133.748C148.779 134.731 148.939 135.162 148.804 135.777C148.952 136.073 150.119 134.738 149.926 134.44C151.004 133.443 150.544 136.148 151.57 134.686C150.969 136.062 150.116 135.495 149.501 135.819C149.203 136.748 149.627 137.226 149.624 137.971C148.785 138.536 148.623 137.332 148.256 137.074C147.984 137.077 148.049 137.47 147.658 137.926C148.093 138.973 149.309 140.312 149.921 140.651C149.058 141.919 149.664 140.285 149.024 140.893C148.974 142.437 147.409 144.73 145.707 147.421C144.65 147.48 144.232 147.769 143.567 146.847C143.248 147.011 143.128 147.487 142.52 147.819C141.899 149.211 142.981 150.043 143.589 150.176C142.392 151.21 142.528 152.59 142.665 153.301C142.049 154.247 141.703 153.866 141.171 154.393C139.344 157.939 137.178 157.405 135.316 158.844C132.492 157.896 130.989 154.67 128.174 153.754C127.285 153.464 125.992 153.755 125.137 153.422C123.188 152.666 121.589 151.282 119.711 150.284C114.019 147.254 109.266 143.354 103.061 140.624C101.097 139.759 98.5477 138.911 96.4897 137.563C93.0557 135.315 88.9692 133.766 87.0589 130.558C86.7393 130.722 86.6067 131.263 86.0864 131.166C86.2087 129.398 82.9753 131.254 84.1468 128.238Z" fill="#73CAE4" fill-opacity="0.26"/>
<path id="path338_2" fill-rule="evenodd" clip-rule="evenodd" d="M185.155 141.343C184.495 141.921 185.147 140.585 184.459 141.291C184.58 142.167 183.866 143.549 184.399 144.174C184.519 143.359 184.837 143.408 185.287 142.684C184.517 143.633 184.417 141.938 185.155 141.343ZM168.566 135.633C168.286 135.544 168.302 136.143 168.037 136.112C166.202 134.943 164.781 132.558 162.03 132.499C161.176 130.491 159.045 130.034 157.54 129.067C156.45 128.369 155.75 126.71 153.72 127.756C155.697 129.39 158.211 130.406 159.57 132.1C162.101 132.851 164.498 135.098 167.553 137.04C167.599 137.329 166.791 138.136 166.99 138.332C167.483 137.796 167.917 137.532 168.293 137.538C172.223 140.702 175.707 143.024 178.262 145.065C178.301 145.371 177.404 147.042 178.271 146.323C178.221 146.167 178.279 145.198 178.633 145.313C179.821 146.992 185.21 149.08 186.096 151.993C186 151.84 186.129 151.551 186.255 151.263C188.236 152.906 190.851 153.202 191.733 155.358C190.591 152.876 189.434 149.88 186.492 150.171C186.695 149.889 186.897 149.608 187.1 149.328C185.556 150.283 185.904 147.334 185.283 147.271C182.173 148.947 183.145 145.412 181.206 144.537C179.785 145.89 178.838 144.084 178.658 143.242C175.516 141.361 171.614 138.914 168.566 135.633ZM193.443 154.001C193.686 154.652 192.947 154.76 192.509 155.044C192.346 155.872 193.101 156.114 193.868 155.956C192.837 155.997 194.405 154.117 193.858 154.697C193.65 154.565 193.226 155.431 193.002 155.377C193.346 154.879 193.66 154.52 193.937 154.333C193.377 154.531 193.995 153.296 193.443 154.001ZM194.96 154.185C193.714 157.193 196.844 156.8 197.167 159.007C197.652 158.508 198.037 158.476 198.391 158.577C198.835 159.096 199.658 160.715 200.817 159.787C200.355 159.541 200.785 158.753 200.561 158.364C199.83 159.097 198.643 158.54 198.675 157.93C199.514 156.845 198.906 158.395 199.573 157.7C198.599 157.219 195.714 156.887 194.96 154.185ZM200.862 160.235C201.683 160.395 201.625 162.318 202.917 161.196C202.11 161.271 201.701 159.484 200.862 160.235ZM189.386 153.783C189.04 153.581 188.329 154.029 188.205 154.661C188.47 154.964 188.891 154.544 189.386 153.783ZM192.438 156.669C192.116 157.074 191.734 157.737 191.504 157.711C191.148 157.138 190.05 156.222 189.327 156.665C192.893 160.284 197.302 163.115 199.428 165.534C199.288 165.531 199.179 165.378 198.978 165.65C199.224 166.255 199.804 165.324 200.204 165.219C200.974 167.047 203.271 167.672 204.013 169.1C203.888 169.376 204.078 169.459 204.21 169.577C204.171 169.403 204.092 169.252 204.013 169.1C204.053 169.013 204.125 168.904 204.245 168.766C205.332 169.929 206.222 169.106 206.063 170.822C206.811 169.761 206.988 171.336 207.736 170.277C203.919 166.355 196.879 162.434 192.863 158.623C193.188 157.717 193.8 158.444 193.595 157.86C192.95 158.455 193.543 156.972 192.775 157.728C192.602 159.495 192.227 157.731 192.438 156.669ZM222.795 179.13C223.397 178.137 222.581 178.298 222.053 178.633C222.396 179.004 222.014 179.816 222.759 179.943C223.156 179.491 223.095 179.098 223.367 179.098C223.941 179.17 222.701 180.346 223.377 180.356C223.724 179.841 223.974 179.78 224.153 180.041C225.205 178.437 223.937 177.884 222.795 179.13ZM226.994 181.949C227.001 180.97 225.877 180.056 225.052 179.811C224.342 182.773 227.384 181.048 226.924 183.571C227.229 183.252 227.497 183.103 227.699 183.259C228.82 181.658 227.722 181.675 226.994 181.949ZM221.005 180.853C221.627 180.79 220.987 181.496 221.095 181.746C221.499 181.189 221.688 181.615 222.151 180.786C221.792 180.328 221.845 180.054 221.005 180.853ZM210.173 172.746C212.973 174.692 214.813 177.505 218.2 178.133C215.862 176.335 213.712 174.114 210.173 172.746ZM207.638 168.123C207.702 168.189 207.754 168.263 207.559 168.488C207.359 168.328 207.087 168.491 206.784 168.801C207.085 169.366 207.657 168.689 208.132 168.454C207.709 168.569 208.326 167.335 207.638 168.123ZM208.779 172.645C209.423 171.853 209.665 172.907 210.252 172.38C210.06 172.129 210.329 171.596 210.366 171.204C208.645 172.014 209.435 169.926 207.659 170.639C207.516 171.899 210.107 171.439 208.779 172.645ZM193.44 164.435C193.568 164.692 193.154 164.781 192.833 165.28C193.831 164.863 192.449 166.407 193.371 166.058C193.227 165.729 193.426 165.444 193.856 165.131C193.74 164.969 193.839 163.908 193.44 164.435ZM215.54 183.863C215.147 184.153 214.67 184.83 214.36 184.739C215.311 183.327 213.687 183.166 213.292 184.441C214.139 183.675 214.621 186.451 216.503 186.596C217.214 184.494 216.073 184.793 215.54 183.863ZM221.69 190.079C222.175 190.189 222.186 191.968 222.924 190.907C222.94 190.491 222.644 188.886 221.69 190.079ZM224.575 192.432C224.428 193.047 225.027 193.116 225.518 192.649C225.353 192.244 225.21 192.03 224.575 192.432ZM225.44 193.011C225.279 193.799 226.119 194.805 226.966 194.454C226.393 193.8 226.347 192.696 225.44 193.011ZM151.978 146.206C152.488 147.218 152.993 147.902 153.954 147.532C153.915 146.813 152.69 145.99 151.978 146.206ZM154.325 147.78C154.511 147.998 154.62 149.056 155.312 148.444C155.397 148.062 154.849 147.269 154.325 147.78ZM143.624 141.017C143.151 140.111 141.89 140.014 141.075 139.722C141.648 140.383 142.182 141.025 143.624 141.017ZM148.07 144.001C149.273 144.709 150.433 146.096 151.933 145.759C150.133 145.005 149.823 143.69 148.07 144.001ZM203.783 178.059C203.603 177.837 203.324 176.396 202.47 177.592C203.226 177.72 202.885 178.852 203.783 178.059ZM212.843 184.556C213.518 183.717 213.072 183.011 212.428 183.861C212.24 184.65 213.005 183.881 212.843 184.556ZM221.972 189.431C220.197 189.406 219.942 186.804 217.738 187.425C219.27 188.135 219.55 190.283 221.972 189.431ZM209.217 181.705C210.493 182.168 210.864 184.496 212.71 183.214C211.32 182.986 211.149 180.1 209.217 181.705ZM178.504 166.099C178.628 166.92 179.566 167.245 179.299 168.303C178.571 167.358 176.895 165.626 175.762 166.346C177.771 168.31 180.242 169.014 181.7 171.583C181.571 171.82 181.304 172.141 181.419 172.229C181.688 171.855 181.959 171.478 182.229 171.103C182.296 171.78 183.338 172.703 184.16 171.983C183.87 170.039 182.206 168.865 181.019 168.204C180.961 168.382 181.319 169.023 180.861 168.934C180.425 167.879 179.52 166.274 178.504 166.099ZM186.912 172.995C186.215 173.328 186.714 172.224 185.969 172.778C186.097 172.981 185.617 174.337 186.181 173.755C186.128 173.63 186.206 173.424 186.462 173.111C186.62 173.249 186.979 173.365 186.912 172.995ZM187.159 173.16C186.889 173.535 186.619 173.911 186.349 174.286C188.185 176.646 189.926 177.03 192.24 179.078C191.758 175.179 188.268 176.466 187.159 173.16ZM192.735 179.408C192.908 180.243 195.624 180.377 194.43 181.379C194.303 181.76 196.097 181.185 196.026 181.199C195.232 180.423 193.857 178.552 192.735 179.408ZM196.767 181.697C196.493 182.086 196.264 182.275 196.035 182.458C196.146 182.811 195.865 183.783 196.653 182.872C196.461 182.62 196.73 182.088 196.767 181.697ZM174.591 168.481C174.919 169.494 176.365 169.826 175.801 171.38C175.6 171.222 175.328 171.386 175.026 171.694C176.206 171.041 174.457 173.083 175.44 172.39C176.091 171.569 177.443 173.626 178.147 172.956C177.952 170.718 176.703 168.491 174.591 168.481ZM169.502 167.153C169.516 169.791 170.749 167.078 172.017 169.258C172.392 167.806 170.074 167.437 172.034 165.928C170.336 167.1 169.762 163.12 168.126 163.723C167.984 164.441 168.657 164.663 167.976 165.71C168.08 165.297 167.481 165.226 167.032 165.496C168.049 165.876 168.246 167.763 169.502 167.153ZM167.111 165.131C166.735 165.126 166.551 164.238 166.044 164.832C166.386 165.266 166.329 165.833 167.111 165.131ZM115.749 137.752C113.786 137.012 114.093 136.085 112.134 136.159C112.627 137.066 114.078 139.086 115.749 137.752ZM105.801 132.742C106.164 133.101 106.959 133.196 106.833 133.853C107.272 132.637 106.687 132.117 105.801 132.742ZM162.205 171.438C163.544 172.026 163.395 173.914 164.754 172.732C163.947 173.079 163.359 170.363 162.205 171.438ZM173.171 180.885C172.968 181.167 172.764 181.449 172.563 181.73C172.569 182.207 173.633 182.271 173.189 183.404C174.574 181.73 174.668 184.489 175.942 184.415C176.224 182.227 173.907 182.454 173.171 180.885ZM176.84 184.185C176.473 186.704 179.284 185.735 178.756 188.393C176.582 187.215 175.484 184.765 172.537 183.801C172.568 184.204 173.084 184.311 172.873 184.861C171.41 184.836 171.541 183.644 171.584 182.325C171.124 183.14 170.937 182.699 170.606 182.922C170.725 182.041 170.81 180.68 169.652 181.446C172.092 187.331 180.426 192.73 184.378 195.087C182.418 192.47 180.007 192.347 178.89 189.734C180.615 188.971 180.038 192.486 182.382 191.243C181.474 191.076 181.032 189.459 180.319 189.022C179.82 189.885 179.151 187.999 180.59 187.119C179.409 186.318 177.625 185.232 176.84 184.185ZM183.415 192.354C184.321 193.992 185.35 194.042 186.625 194.51C185.58 193.122 185.029 191.583 183.415 192.354ZM194.001 200.296C194.357 200.394 194.741 200.363 195.226 199.866C194.873 199.545 194.602 198.358 193.744 198.871C193.66 199.585 194.55 199.707 194.327 200.096C194.241 200.062 194.151 200.04 194.001 200.296ZM196.17 200.081C195.063 201.511 195.538 199.9 195.147 200.229C195.287 200.432 194.788 200.904 194.539 201.074C195.936 200.989 195.414 202.431 197.326 201.274C197.342 202.055 198.534 202.119 197.874 203.312C198.483 202.89 198.12 202.946 198.683 202.187C197.877 201.94 197.903 201.185 197.608 200.628C196.566 202.147 196.454 200.428 196.17 200.081ZM199.469 203.131C200.496 203.376 199.892 204.734 200.671 204.771C200.49 204.142 201.308 202.908 200.898 202.418C200.176 204.13 200.5 202.251 199.469 203.131ZM167.73 181.826C167.579 178.866 164.899 178.262 163.434 176.854C163.664 177.124 163.177 177.796 162.746 178.065C164.356 179.629 165.816 181.384 167.73 181.826ZM190.904 196.964C190.64 196.882 190.922 195.434 190.613 196.35C190.676 196.418 190.728 196.491 190.533 196.716C190.02 196.553 189.921 196.139 189.748 195.771C188.983 196.771 190.487 197.207 190.904 196.964ZM187.222 202.841C187.02 203.758 187.939 202.842 188.289 203.14C188.176 203.296 188.16 203.526 188.412 203.223C188.585 202.201 187.988 202.531 187.222 202.841ZM175.345 133.087C176.25 132.507 175.731 132.826 176.526 132.21C179.327 135.193 181.217 136.389 183.99 138.89C183.802 139.103 183.664 139.086 183.461 139.369C183.913 139.432 185.349 138.854 184.739 140.648C185.003 140.518 185.296 140.26 185.595 139.967C185.707 140.11 185.329 140.551 185.111 140.895C185.249 140.908 185.437 140.695 185.559 140.779C186.113 140.731 185.359 140.251 186.168 139.935C186.871 140.747 185.879 141.826 187.527 140.846C187.997 141.423 187.73 142.709 188.806 142.122C188.949 142.453 188.751 142.738 188.321 143.051C189.605 142.436 189.605 143.616 190.5 144.096C190.148 144.418 189.858 144.442 189.601 144.327C189.003 145.362 190.361 144.58 189.857 145.751C189.277 145.778 188.671 146.39 188.588 145.733C188.194 147.764 190.765 148.724 191.684 149.065C191.15 149.186 190.838 150.62 191.606 149.429C191.64 149.83 191.065 150.602 191.289 150.886C190.759 151.603 190.424 150.903 190.232 151.846C190.594 152.203 191.083 150.633 191.66 151.134C191.781 150.588 191.415 150.335 192.178 149.397C192.314 149.642 192.57 149.333 192.832 148.998C192.892 149.906 191.505 149.81 191.94 150.49C192.758 149.803 193.966 150.198 194.481 150.523C193.895 148.762 192.092 149.238 191.631 147.359C192.932 145.769 193.086 147.154 193.068 147.906C193.435 148.052 193.248 147.308 193.879 146.78C193.89 147.05 194.727 147.465 194.866 147.444C194.83 148.4 193.951 147.817 193.562 148.238C193.777 148.48 194.264 150.097 195.855 148.108C195.621 148.777 195.161 149.583 195.459 149.929C195.585 149.641 195.714 149.352 195.618 149.199C196.392 148.949 195.1 150.743 194.402 150.888C195.274 152.716 198.399 154.389 200.709 156.376C201.835 157.341 203.315 158.2 204.01 159.424C204.442 160.19 206.82 161.511 208.209 162.243C208.313 162.442 207.803 163.017 207.522 163.451C209.481 162.391 209.533 164.883 211.632 165.376C211.743 165.518 211.366 165.959 211.147 166.302C211.289 166.593 212.302 165.793 211.439 166.916C213.87 166.002 214.644 168.462 215.92 169.088C216.098 169.178 216.601 168.719 216.571 168.691C216.81 168.907 216.487 170.001 216.952 170.198C217.497 170.432 217.609 170.673 217.984 171.31C218.323 171.883 219.089 172.942 219.308 173.033C219.48 173.105 219.886 172.439 220.084 172.718C220.242 172.945 219.822 173.465 219.851 173.748C219.964 173.636 221.006 174.226 221.609 174.162C220.682 175.197 223.528 175.47 224.168 176.713C223.687 177.24 223.401 177.015 223.235 177.756C224.232 177.81 225.271 176.376 224.919 178.47C226.321 177.686 226.195 178.562 227.176 179.15C226.773 179.708 226.582 179.281 226.119 180.11C227.05 179.166 226.607 180.764 227.59 179.847C227.666 179.972 227.489 180.244 227.337 180.36C228.789 179.783 229.729 181.358 230.353 182.117C229.659 182.788 229.702 183.176 229.295 183.078C229.378 183.68 230.024 184.534 228.945 185.344C229.362 185.142 229.491 185.227 229.438 185.677C229.724 185.35 229.743 185.182 229.682 185.065C230.747 186.536 232.459 188.351 232.95 189.704C233.522 189.02 233.185 189.62 233.972 189.556C233.697 189.741 233.383 190.102 233.038 190.599C233.393 190.705 234.071 189.315 234.343 189.806C233.033 191.835 235.765 190.416 235.093 191.561C235.271 191.613 235.567 191.117 235.824 190.8C236.004 191.618 236.328 191.546 237.307 191.794C235.444 192.329 237.052 192.538 237.722 192.49C237.342 193.159 237.198 192.732 236.867 193.169C236.694 193.816 237.013 194.468 237.811 193.385C237.408 195.141 238.133 195.592 238.412 197.129C237.032 197.878 235.898 197.376 234.435 196.545C234.163 196.546 234.226 196.938 233.828 197.39C231.599 196.851 230.458 194.803 227.954 195.117C229.613 198.847 233.863 199.832 236.079 202.66C234.714 202.87 234.221 202.797 232.922 202.21C232.452 203.075 233.441 203.053 233.303 203.716C232.788 204.131 232.499 203.505 232.033 203.699C233.052 205.787 235.095 206.385 237.106 208.357C236.489 209.461 236.411 208.083 235.722 209.515C232.119 206.465 227.042 207.293 226.179 203.943C226.728 203.37 226.95 204.299 227.368 204.326C227.222 202.401 225.536 201.758 224.272 200.993C220.736 198.858 217.159 196.802 213.739 194.76C213.546 195.036 213.733 195.081 213.785 195.207C209.433 194.054 203.961 190.439 201.31 186.835C200.979 187.058 200.792 186.616 200.333 187.43C200.321 185.341 198.524 185.564 197.202 184.909C193.816 183.24 191.518 179.197 188.219 178.047C189.564 176.908 187.921 177.694 187.355 177.467C185.096 176.558 182.737 173.427 180.351 171.931C179.981 174.199 183.355 174.069 183.581 176.604C183.12 177.427 183.145 176.011 182.682 176.835C183.116 180.22 186.827 179.059 187.27 182.419C187.643 182.252 187.551 181.921 188.126 181.741C191.797 183.309 195.997 187.576 199.62 190.709C200.049 191.081 200.996 190.505 201.588 190.776C206.561 193.058 208.362 198.604 213.048 200.556C210.292 199.943 209.211 197.978 205.973 196.642C205.795 196.59 205.499 197.086 205.242 197.405C203.675 196.32 203.757 195.091 202.515 194.322C196.518 190.596 190.191 185.244 182.562 182.597C181.938 182.51 181.847 183.576 181.302 183.839C180.959 181.722 178.423 182.459 178.813 179.664C178.297 179.692 178.585 180.518 178.575 180.757C176.773 180.85 177.488 176.858 175.187 176.813C174.68 177.806 175.42 178.04 175.162 178.883C175.047 179.143 174.32 178.461 174.5 178.022C173.161 179.235 171.655 176.954 170.84 175.981C169.664 177.214 168.739 174.132 167.189 175.201C170.049 178.106 174.975 179.872 177.369 183.705C177.76 183.256 177.656 183.107 177.528 182.976C178.172 182.791 178.495 183.198 177.986 184.119C178.441 184.495 178.258 183.661 178.841 183.441C179.012 183.95 178.998 184.167 179.054 184.418C180.736 184.359 181.219 186.211 181.983 187.219C183.894 189.121 181.497 186.386 180.308 187.764C182.228 190.256 186.19 191.497 187.728 193.996C186.766 195.47 187.287 193.709 186.548 194.873C187.114 196.02 188.333 196.098 188.937 196.897C189.437 195.854 188.215 195.859 189.166 194.542C190.252 195.017 191.069 196.225 191.882 196.368C190.392 198.39 192.413 198.817 193.488 197.445C194.247 197.352 193.168 198.378 193.7 198.422C193.905 198.458 194.228 197.948 194.106 197.86C195.991 198.65 200.192 201.077 201.639 202.916C201.671 203.213 201.435 203.674 201.075 204.209C201.609 204.212 201.654 203.252 202.089 202.802C202.735 204.124 204.231 203.707 204.154 205.021C203.481 206.159 203.312 204.988 202.883 205.005C202.691 205.728 203.282 205.391 202.32 206.296C205.422 207.978 206.143 208.501 208.618 210.524C205.697 211.256 204.939 207.979 202.418 208.449C201.881 206.935 200.408 207.297 199.656 206.179C199.29 206.032 199.477 206.777 198.846 207.305C198.231 207.358 198.548 207.142 198.105 206.807C197.475 207.506 197.969 207.522 197.868 207.9C197.238 208.56 197.715 206.994 196.924 207.684C196.731 209.274 199.118 207.282 199.473 208.977C199.183 209.571 199.701 209.42 198.989 209.904C199.642 210.244 199.566 211.03 200.392 211.264C200.935 211.62 200.063 211.763 199.941 211.38C198.656 210.799 196.511 210.851 196.608 209.141C195.441 209.699 196.102 208.418 195.294 208.676C195.481 208.147 196.016 207.427 196.554 207.435C195.29 204.827 192.283 204.148 190.087 202.678C189.576 204.98 192.548 203.986 192.408 206.323C191.084 206.313 190.419 205.371 189.489 204.78C190.382 203.993 189.221 203.394 188.659 203.388C188.388 203.387 188.448 203.782 188.052 204.233C187.583 203.219 186.555 203.521 185.582 202.575C185.727 202.117 186.218 201.449 186.022 201.199C184.931 203.247 185.932 200.26 184.831 200.819C187.136 199.17 185.73 202.786 187.38 202.113C186.802 200.046 186.173 198.238 184.116 198.251C183.603 198.984 184.431 198.903 183.472 199.907C182.549 199.284 182.377 198.583 181.249 198.415C181.562 198.058 181.727 198.389 181.947 198.464C182.013 196.111 180.133 194.918 178.593 193.709C178.007 194.051 177.997 194.602 178.03 195.001C177.449 195.716 177.216 194.833 176.68 195.348C176.388 190.918 170.849 191.751 170.801 187.228C170.456 187.785 170.056 187.447 169.295 188.303C168.289 187.74 168.03 186.365 166.297 187.125C166.331 185.2 162.921 186.038 164.336 182.47C161.623 183.906 160.735 182.851 159.124 181.06C159.444 180.673 159.565 181.208 159.9 180.744C159.658 179.891 158.74 179.449 158.206 178.772C157.771 179.722 158.704 179.839 159.159 180.247C158.03 181.646 158.374 180.074 157.518 179.983C158.672 176.793 155.735 176.751 154.254 176.12C154.031 176.729 154.739 176.773 154.714 177.262C152.79 177.638 152.692 175.228 151.175 175.306C151.447 174.93 151.716 174.556 151.986 174.18C150.066 171.912 147.944 171.331 145.16 170.432C144.766 170.404 144.993 170.972 144.427 171.194C141.561 169.459 138.883 166.74 135.299 166.319C135.235 166.661 136.685 166.775 135.6 168.19C135.425 167.431 134.166 166.73 134.391 165.29C131.229 163.676 127.282 162.318 123.991 160.396C121.268 158.809 118.087 157.906 115.401 156.301C110.101 153.135 106.424 149.389 102.053 146.089C100.781 145.129 99.8066 143.968 99.7665 141.632C101.924 139.281 102.604 140.593 104.386 140.559C104.422 139.852 104.881 138.887 104.412 138.487C104.572 138.34 105.498 137.612 105.222 137.361C107.533 134.997 108.443 136.988 110.246 135.727C110.416 133.972 108.355 134.774 107.361 133.373C106.954 134.411 107.367 134.951 107.911 135.41C106.114 135.759 104.757 133.812 104.318 131.748C105.703 130.815 105.277 132.475 106.778 132.148C107.445 130.645 108.391 130.734 109.052 129.498C109.064 128.858 108.551 128.538 108.223 128.107C108.784 127.91 109.563 126.711 110.056 126.833C110.791 125.858 110.636 125.425 110.778 124.812C110.633 124.514 109.451 125.835 109.641 126.136C108.551 127.12 109.042 124.421 108 125.871C108.616 124.502 109.463 125.079 110.081 124.761C110.39 123.836 109.972 123.353 109.983 122.609C110.828 122.053 110.977 123.259 111.341 123.521C111.613 123.521 111.552 123.127 111.949 122.676C111.526 121.624 110.325 120.271 109.716 119.926C110.594 118.667 109.969 120.294 110.617 119.693C110.684 118.15 112.275 115.875 114.007 113.203C115.065 113.156 115.486 112.872 116.14 113.802C116.461 113.642 116.586 113.167 117.198 112.841C117.835 111.457 116.763 110.613 116.156 110.473C117.365 109.453 117.245 108.071 117.115 107.359C117.743 106.419 118.084 106.805 118.623 106.283C120.489 102.758 122.649 103.318 124.527 101.899C127.34 102.88 128.807 106.123 131.611 107.071C132.497 107.371 133.793 107.094 134.644 107.438C136.584 108.216 138.168 109.617 140.034 110.637C145.691 113.731 150.4 117.686 156.573 120.487C158.527 121.373 161.067 122.251 163.109 123.622C166.517 125.909 170.586 127.504 172.46 130.734C172.781 130.574 172.92 130.034 173.439 130.137C173.297 131.904 176.551 130.084 175.345 133.087Z" fill="#73CAE4" fill-opacity="0.26"/>
<path id="path338_3" fill-rule="evenodd" clip-rule="evenodd" d="M165.876 78.1816C165.216 78.7603 165.868 77.4237 165.18 78.13C165.301 79.0056 164.587 80.3874 165.12 81.0126C165.24 80.1979 165.558 80.2465 166.008 79.5227C165.238 80.4721 165.138 78.777 165.876 78.1816ZM149.287 72.4718C149.007 72.383 149.023 72.9823 148.758 72.9511C146.923 71.7821 145.502 69.3971 142.751 69.3382C141.897 67.3299 139.766 66.8725 138.261 65.9062C137.171 65.2075 136.471 63.5486 134.441 64.5954C136.418 66.2286 138.933 67.2449 140.291 68.9385C142.822 69.6895 145.219 71.9371 148.274 73.8789C148.32 74.1674 147.512 74.9749 147.711 75.1706C148.204 74.6347 148.638 74.3704 149.014 74.3771C152.944 77.5413 156.428 79.8627 158.983 81.9034C159.022 82.2102 158.125 83.8805 158.992 83.1616C158.942 83.0064 159 82.0366 159.354 82.1523C160.542 83.8309 165.931 85.9185 166.817 88.8323C166.721 88.6793 166.85 88.3901 166.976 88.1023C168.957 89.7444 171.572 90.0407 172.454 92.1966C171.312 89.7153 170.155 86.719 167.213 87.0097C167.416 86.7279 167.618 86.4464 167.821 86.1664C166.277 87.1221 166.625 84.1729 166.004 84.1096C162.894 85.7858 163.866 82.2508 161.927 81.3754C160.506 82.7291 159.559 80.9233 159.379 80.0812C156.237 78.1994 152.335 75.7526 149.287 72.4718ZM174.164 90.8396C174.407 91.4911 173.668 91.5991 173.23 91.8825C173.067 92.7106 173.822 92.9524 174.589 92.7948C173.558 92.836 175.126 90.9557 174.579 91.5363C174.371 91.4039 173.947 92.2701 173.723 92.2155C174.067 91.7183 174.381 91.3591 174.658 91.1718C174.098 91.37 174.716 90.135 174.164 90.8396ZM175.681 91.0238C174.435 94.0316 177.565 93.639 177.888 95.8457C178.373 95.3469 178.758 95.3153 179.112 95.4158C179.556 95.935 180.379 97.5534 181.538 96.6259C181.076 96.3801 181.506 95.5916 181.282 95.2026C180.551 95.9356 179.364 95.3787 179.396 94.769C180.235 93.6836 179.627 95.2343 180.294 94.5388C179.32 94.0577 176.435 93.7261 175.681 91.0238ZM181.583 97.0744C182.404 97.2342 182.346 99.1573 183.638 98.0353C182.831 98.1102 182.422 96.3225 181.583 97.0744ZM170.107 90.622C169.761 90.4195 169.05 90.8679 168.926 91.4994C169.191 91.8028 169.612 91.3825 170.107 90.622ZM173.159 93.5078C172.837 93.9127 172.455 94.5758 172.225 94.5503C171.869 93.9771 170.771 93.061 170.048 93.5035C173.614 97.1232 178.023 99.9541 180.149 102.372C180.009 102.37 179.9 102.216 179.699 102.489C179.945 103.094 180.525 102.163 180.925 102.058C181.695 103.886 183.992 104.511 184.734 105.939C184.609 106.214 184.799 106.298 184.931 106.416C184.892 106.242 184.813 106.091 184.734 105.939C184.774 105.851 184.846 105.743 184.966 105.605C186.053 106.768 186.943 105.944 186.784 107.661C187.532 106.6 187.709 108.175 188.457 107.116C184.64 103.194 177.6 99.273 173.584 95.4614C173.909 94.5561 174.521 95.2825 174.316 94.6989C173.671 95.294 174.264 93.8107 173.496 94.5666C173.323 96.334 172.948 94.5697 173.159 93.5078ZM203.516 115.969C204.118 114.975 203.302 115.136 202.774 115.472C203.117 115.843 202.735 116.654 203.48 116.782C203.877 116.329 203.816 115.937 204.088 115.937C204.662 116.009 203.422 117.185 204.098 117.195C204.445 116.68 204.695 116.619 204.874 116.88C205.926 115.276 204.658 114.723 203.516 115.969ZM207.715 118.788C207.722 117.809 206.598 116.895 205.773 116.65C205.063 119.612 208.105 117.887 207.645 120.41C207.95 120.091 208.218 119.942 208.42 120.097C209.541 118.496 208.443 118.513 207.715 118.788ZM201.726 117.692C202.348 117.629 201.708 118.335 201.816 118.584C202.22 118.027 202.409 118.453 202.872 117.625C202.513 117.167 202.566 116.893 201.726 117.692ZM190.894 109.585C193.694 111.531 195.534 114.344 198.921 114.971C196.583 113.173 194.433 110.953 190.894 109.585ZM188.359 104.961C188.423 105.028 188.475 105.102 188.28 105.327C188.08 105.167 187.809 105.33 187.505 105.639C187.806 106.205 188.378 105.527 188.853 105.293C188.43 105.408 189.047 104.174 188.359 104.961ZM189.501 109.484C190.144 108.692 190.386 109.746 190.973 109.219C190.781 108.967 191.05 108.435 191.087 108.043C189.366 108.852 190.156 106.765 188.38 107.478C188.237 108.738 190.828 108.278 189.501 109.484ZM174.161 101.274C174.289 101.531 173.875 101.62 173.554 102.119C174.552 101.702 173.17 103.246 174.092 102.897C173.948 102.568 174.147 102.283 174.577 101.97C174.461 101.807 174.56 100.747 174.161 101.274ZM196.261 120.702C195.868 120.992 195.391 121.669 195.081 121.578C196.032 120.166 194.408 120.005 194.013 121.28C194.86 120.514 195.342 123.289 197.224 123.435C197.935 121.333 196.794 121.632 196.261 120.702ZM202.411 126.917C202.896 127.028 202.907 128.807 203.645 127.746C203.661 127.33 203.365 125.725 202.411 126.917ZM205.296 129.271C205.149 129.885 205.748 129.955 206.239 129.488C206.074 129.083 205.931 128.869 205.296 129.271ZM206.161 129.85C206 130.638 206.84 131.643 207.687 131.293C207.114 130.638 207.068 129.535 206.161 129.85ZM132.699 83.0447C133.209 84.0568 133.714 84.7411 134.675 84.3708C134.636 83.6521 133.411 82.8286 132.699 83.0447ZM135.046 84.6192C135.232 84.8367 135.341 85.895 136.033 85.2827C136.118 84.9007 135.57 84.1081 135.046 84.6192ZM124.345 77.8555C123.872 76.9495 122.611 76.8524 121.796 76.5606C122.369 77.2217 122.903 77.8636 124.345 77.8555ZM128.791 80.8394C129.994 81.5478 131.154 82.935 132.654 82.5977C130.854 81.8439 130.544 80.5285 128.791 80.8394ZM184.504 114.897C184.324 114.676 184.045 113.235 183.191 114.431C183.947 114.559 183.606 115.691 184.504 114.897ZM193.564 121.395C194.239 120.556 193.793 119.85 193.149 120.7C192.961 121.489 193.726 120.72 193.564 121.395ZM202.693 126.27C200.918 126.245 200.663 123.643 198.459 124.264C199.991 124.974 200.271 127.122 202.693 126.27ZM189.938 118.544C191.214 119.007 191.585 121.335 193.431 120.053C192.041 119.825 191.87 116.939 189.938 118.544ZM159.225 102.938C159.349 103.759 160.287 104.084 160.02 105.141C159.292 104.197 157.616 102.465 156.483 103.185C158.492 105.149 160.963 105.853 162.421 108.422C162.292 108.659 162.025 108.98 162.14 109.068C162.409 108.694 162.68 108.317 162.95 107.942C163.017 108.619 164.059 109.542 164.881 108.822C164.591 106.878 162.927 105.704 161.74 105.043C161.682 105.221 162.04 105.862 161.582 105.773C161.146 104.718 160.241 103.113 159.225 102.938ZM167.633 109.834C166.936 110.166 167.435 109.063 166.69 109.617C166.818 109.82 166.338 111.176 166.902 110.594C166.849 110.468 166.928 110.262 167.183 109.95C167.341 110.087 167.7 110.204 167.633 109.834ZM167.88 109.999C167.61 110.374 167.34 110.75 167.07 111.125C168.906 113.485 170.647 113.869 172.961 115.917C172.479 112.018 168.989 113.305 167.88 109.999ZM173.456 116.247C173.629 117.082 176.345 117.216 175.151 118.218C175.024 118.599 176.818 118.023 176.747 118.038C175.953 117.262 174.578 115.391 173.456 116.247ZM177.488 118.536C177.214 118.925 176.985 119.114 176.756 119.297C176.867 119.649 176.586 120.622 177.374 119.711C177.182 119.459 177.451 118.927 177.488 118.536ZM155.312 105.32C155.64 106.333 157.086 106.665 156.522 108.219C156.321 108.061 156.049 108.225 155.747 108.533C156.927 107.88 155.178 109.922 156.161 109.229C156.812 108.408 158.164 110.465 158.868 109.795C158.673 107.557 157.424 105.33 155.312 105.32ZM150.223 103.992C150.237 106.63 151.47 103.916 152.738 106.097C153.113 104.645 150.795 104.276 152.755 102.767C151.057 103.939 150.483 99.9585 148.847 100.562C148.705 101.28 149.378 101.502 148.697 102.549C148.801 102.135 148.202 102.065 147.753 102.335C148.77 102.715 148.967 104.602 150.223 103.992ZM147.832 101.97C147.456 101.965 147.272 101.077 146.765 101.671C147.107 102.105 147.05 102.672 147.832 101.97ZM96.4703 74.5909C94.5069 73.8514 94.8136 72.9238 92.8548 72.9977C93.3481 73.9045 94.7993 75.9244 96.4703 74.5909ZM86.5215 69.5812C86.8854 69.9396 87.6797 70.0347 87.5543 70.6919C87.9926 69.4757 87.4084 68.9558 86.5215 69.5812ZM142.926 108.276C144.265 108.865 144.116 110.753 145.475 109.571C144.668 109.918 144.08 107.202 142.926 108.276ZM153.892 117.724C153.689 118.006 153.485 118.288 153.284 118.568C153.29 119.046 154.354 119.11 153.91 120.243C155.295 118.569 155.389 121.328 156.663 121.253C156.945 119.066 154.628 119.293 153.892 117.724ZM157.561 121.024C157.194 123.543 160.005 122.574 159.477 125.232C157.303 124.053 156.205 121.604 153.258 120.64C153.289 121.042 153.805 121.15 153.594 121.7C152.131 121.675 152.262 120.483 152.305 119.164C151.845 119.979 151.658 119.537 151.327 119.761C151.446 118.88 151.531 117.519 150.373 118.285C152.813 124.17 161.147 129.568 165.099 131.926C163.139 129.309 160.728 129.186 159.611 126.572C161.336 125.809 160.759 129.325 163.103 128.082C162.195 127.915 161.753 126.298 161.04 125.861C160.541 126.724 159.872 124.837 161.311 123.958C160.13 123.157 158.346 122.071 157.561 121.024ZM164.136 129.193C165.042 130.831 166.071 130.881 167.346 131.349C166.301 129.961 165.75 128.422 164.136 129.193ZM174.722 137.135C175.078 137.233 175.462 137.202 175.947 136.705C175.594 136.384 175.323 135.197 174.465 135.709C174.381 136.424 175.271 136.546 175.048 136.935C174.962 136.9 174.872 136.879 174.722 137.135ZM176.891 136.919C175.784 138.349 176.259 136.739 175.868 137.068C176.008 137.271 175.509 137.743 175.26 137.913C176.657 137.828 176.135 139.27 178.047 138.113C178.063 138.894 179.255 138.958 178.595 140.151C179.204 139.729 178.841 139.785 179.404 139.026C178.598 138.779 178.624 138.024 178.329 137.467C177.287 138.986 177.175 137.267 176.891 136.919ZM180.19 139.97C181.217 140.215 180.613 141.573 181.392 141.61C181.211 140.981 182.029 139.747 181.619 139.257C180.897 140.969 181.221 139.09 180.19 139.97ZM148.451 118.665C148.3 115.705 145.62 115.101 144.155 113.693C144.385 113.963 143.898 114.635 143.467 114.903C145.077 116.468 146.537 118.223 148.451 118.665ZM171.625 133.803C171.361 133.721 171.643 132.273 171.334 133.188C171.397 133.257 171.449 133.33 171.254 133.555C170.741 133.392 170.642 132.978 170.469 132.609C169.704 133.61 171.208 134.046 171.625 133.803ZM167.943 139.68C167.741 140.597 168.66 139.681 169.01 139.979C168.898 140.135 168.881 140.365 169.133 140.062C169.306 139.04 168.709 139.37 167.943 139.68ZM156.066 69.9262C156.971 69.3463 156.452 69.6647 157.247 69.0486C160.048 72.0316 161.938 73.228 164.711 75.7285C164.523 75.9417 164.385 75.9252 164.182 76.2081C164.634 76.2708 166.07 75.6932 165.46 77.4864C165.724 77.3573 166.017 77.0987 166.316 76.806C166.428 76.949 166.05 77.3903 165.832 77.7338C165.97 77.7473 166.158 77.5338 166.28 77.6183C166.834 77.5695 166.08 77.0899 166.889 76.7742C167.592 77.5861 166.6 78.6649 168.248 77.6853C168.719 78.2616 168.451 79.5476 169.527 78.9606C169.67 79.2914 169.472 79.5764 169.042 79.8899C170.326 79.2746 170.326 80.4552 171.221 80.9344C170.869 81.2566 170.579 81.2811 170.322 81.1655C169.724 82.2005 171.082 81.4185 170.578 82.5903C169.998 82.6164 169.392 83.2294 169.309 82.5716C168.915 84.6034 171.486 85.5628 172.405 85.904C171.871 86.0245 171.559 87.4591 172.327 86.2677C172.361 86.6688 171.786 87.4405 172.01 87.7252C171.48 88.4422 171.145 87.7415 170.953 88.6847C171.315 89.0418 171.804 87.4717 172.381 87.9725C172.502 87.4264 172.136 87.1741 172.899 86.2356C173.035 86.4806 173.291 86.172 173.553 85.8373C173.613 86.7452 172.226 86.6491 172.661 87.3286C173.479 86.6415 174.687 87.0369 175.202 87.3623C174.616 85.601 172.813 86.0773 172.352 84.1981C173.653 82.6077 173.807 83.993 173.789 84.7452C174.156 84.8907 173.969 84.1473 174.6 83.6193C174.611 83.8892 175.448 84.3041 175.587 84.2828C175.551 85.2384 174.672 84.6559 174.283 85.0768C174.498 85.3186 174.985 86.9362 176.576 84.9468C176.342 85.6158 175.882 86.422 176.18 86.7676C176.306 86.4801 176.435 86.1913 176.339 86.0383C177.113 85.7876 175.821 87.5817 175.123 87.7271C175.995 89.5552 179.12 91.2278 181.43 93.2145C182.556 94.1801 184.036 95.0387 184.731 96.2631C185.163 97.0286 187.541 98.35 188.93 99.0817C189.034 99.2805 188.524 99.8559 188.243 100.29C190.202 99.2304 190.254 101.722 192.353 102.215C192.464 102.357 192.087 102.798 191.868 103.141C192.01 103.432 193.023 102.632 192.16 103.754C194.591 102.841 195.365 105.301 196.641 105.927C196.819 106.017 197.322 105.558 197.292 105.53C197.531 105.746 197.208 106.84 197.673 107.037C198.218 107.271 198.33 107.512 198.705 108.149C199.044 108.722 199.81 109.781 200.029 109.871C200.201 109.944 200.607 109.278 200.805 109.557C200.963 109.784 200.543 110.304 200.572 110.587C200.685 110.474 201.727 111.065 202.33 111C201.403 112.035 204.249 112.309 204.889 113.552C204.408 114.078 204.122 113.854 203.956 114.595C204.953 114.649 205.992 113.215 205.64 115.308C207.042 114.525 206.916 115.401 207.897 115.989C207.494 116.547 207.303 116.12 206.84 116.949C207.771 116.005 207.328 117.603 208.311 116.686C208.387 116.811 208.21 117.083 208.058 117.199C209.51 116.622 210.45 118.197 211.074 118.956C210.38 119.627 210.423 120.015 210.016 119.917C210.099 120.519 210.745 121.373 209.666 122.183C210.083 121.981 210.212 122.066 210.159 122.516C210.445 122.188 210.464 122.021 210.403 121.903C211.468 123.375 213.18 125.19 213.671 126.543C214.243 125.859 213.906 126.459 214.694 126.395C214.418 126.58 214.104 126.941 213.759 127.438C214.114 127.544 214.792 126.154 215.064 126.645C213.754 128.674 216.486 127.255 215.814 128.4C215.992 128.452 216.288 127.956 216.545 127.639C216.725 128.457 217.049 128.384 218.028 128.633C216.165 129.168 217.773 129.377 218.443 129.329C218.063 129.998 217.919 129.571 217.588 130.008C217.415 130.655 217.734 131.307 218.532 130.224C218.129 131.98 218.854 132.431 219.133 133.968C217.753 134.717 216.619 134.215 215.156 133.384C214.884 133.385 214.947 133.777 214.549 134.229C212.32 133.69 211.179 131.642 208.675 131.955C210.334 135.686 214.584 136.671 216.8 139.498C215.435 139.709 214.942 139.636 213.643 139.049C213.173 139.914 214.162 139.892 214.024 140.555C213.509 140.97 213.22 140.344 212.754 140.538C213.773 142.626 215.816 143.224 217.827 145.195C217.21 146.3 217.132 144.922 216.443 146.354C212.84 143.304 207.763 144.132 206.9 140.782C207.449 140.209 207.671 141.138 208.089 141.165C207.943 139.24 206.257 138.597 204.993 137.832C201.457 135.697 197.88 133.641 194.46 131.599C194.267 131.875 194.454 131.92 194.506 132.046C190.154 130.893 184.682 127.278 182.031 123.674C181.7 123.897 181.513 123.455 181.054 124.269C181.042 122.18 179.245 122.403 177.923 121.748C174.537 120.078 172.239 116.035 168.94 114.886C170.285 113.747 168.642 114.533 168.076 114.306C165.817 113.396 163.458 110.266 161.072 108.77C160.702 111.038 164.076 110.907 164.302 113.443C163.841 114.266 163.866 112.85 163.403 113.674C163.837 117.059 167.548 115.897 167.991 119.258C168.364 119.091 168.272 118.76 168.847 118.58C172.518 120.147 176.718 124.414 180.341 127.548C180.77 127.92 181.717 127.344 182.309 127.615C187.282 129.897 189.083 135.443 193.769 137.395C191.013 136.782 189.932 134.816 186.694 133.481C186.516 133.429 186.22 133.925 185.963 134.244C184.396 133.159 184.478 131.93 183.236 131.161C177.239 127.435 170.912 122.082 163.283 119.436C162.659 119.349 162.568 120.415 162.023 120.678C161.68 118.561 159.144 119.298 159.534 116.502C159.018 116.531 159.306 117.357 159.296 117.595C157.494 117.689 158.209 113.697 155.908 113.652C155.401 114.645 156.141 114.879 155.883 115.722C155.768 115.982 155.042 115.3 155.221 114.86C153.882 116.073 152.376 113.793 151.561 112.82C150.385 114.053 149.46 110.971 147.91 112.04C150.77 114.945 155.696 116.711 158.09 120.544C158.481 120.094 158.377 119.946 158.249 119.815C158.893 119.63 159.216 120.037 158.707 120.958C159.162 121.334 158.979 120.499 159.562 120.28C159.733 120.789 159.719 121.006 159.775 121.257C161.457 121.198 161.94 123.05 162.704 124.058C164.615 125.96 162.218 123.225 161.029 124.603C162.949 127.094 166.911 128.336 168.449 130.835C167.487 132.309 168.008 130.548 167.269 131.712C167.835 132.858 169.054 132.937 169.658 133.735C170.158 132.693 168.936 132.698 169.887 131.381C170.973 131.856 171.79 133.064 172.603 133.207C171.113 135.229 173.134 135.656 174.209 134.283C174.968 134.191 173.889 135.217 174.421 135.261C174.626 135.297 174.949 134.786 174.827 134.699C176.712 135.489 180.913 137.916 182.36 139.755C182.392 140.052 182.156 140.513 181.796 141.048C182.33 141.051 182.375 140.091 182.81 139.641C183.456 140.962 184.952 140.546 184.875 141.86C184.202 142.997 184.033 141.827 183.604 141.844C183.412 142.567 184.003 142.229 183.041 143.135C186.143 144.817 186.864 145.34 189.339 147.363C186.418 148.095 185.66 144.818 183.139 145.288C182.602 143.774 181.129 144.136 180.377 143.018C180.011 142.871 180.198 143.616 179.567 144.144C178.952 144.197 179.269 143.981 178.826 143.645C178.196 144.345 178.69 144.361 178.589 144.739C177.959 145.399 178.437 143.833 177.645 144.523C177.452 146.113 179.839 144.121 180.194 145.816C179.904 146.41 180.422 146.259 179.71 146.742C180.363 147.083 180.287 147.868 181.113 148.103C181.656 148.459 180.784 148.602 180.662 148.219C179.377 147.638 177.232 147.69 177.329 145.98C176.162 146.538 176.823 145.257 176.015 145.515C176.202 144.986 176.737 144.266 177.275 144.273C176.011 141.666 173.004 140.987 170.808 139.517C170.297 141.819 173.269 140.825 173.129 143.162C171.805 143.151 171.14 142.21 170.21 141.619C171.103 140.832 169.942 140.233 169.38 140.227C169.109 140.226 169.169 140.621 168.773 141.072C168.304 140.058 167.276 140.359 166.303 139.414C166.448 138.956 166.939 138.288 166.743 138.038C165.652 140.086 166.653 137.099 165.552 137.657C167.857 136.009 166.451 139.625 168.101 138.952C167.523 136.885 166.894 135.077 164.837 135.09C164.324 135.823 165.152 135.741 164.193 136.746C163.27 136.123 163.098 135.422 161.97 135.254C162.283 134.897 162.448 135.228 162.668 135.303C162.734 132.95 160.854 131.757 159.314 130.548C158.728 130.889 158.718 131.441 158.751 131.84C158.17 132.555 157.937 131.671 157.401 132.187C157.109 127.757 151.57 128.59 151.522 124.067C151.177 124.624 150.777 124.286 150.016 125.142C149.01 124.579 148.751 123.204 147.018 123.964C147.052 122.039 143.642 122.876 145.057 119.308C142.344 120.745 141.456 119.69 139.845 117.899C140.165 117.511 140.286 118.046 140.621 117.583C140.379 116.73 139.461 116.287 138.927 115.611C138.492 116.561 139.425 116.678 139.88 117.086C138.751 118.485 139.095 116.913 138.239 116.821C139.393 113.631 136.456 113.59 134.975 112.959C134.752 113.568 135.46 113.612 135.435 114.101C133.511 114.477 133.413 112.067 131.896 112.145C132.168 111.769 132.437 111.394 132.707 111.019C130.787 108.75 128.665 108.17 125.881 107.271C125.487 107.242 125.714 107.81 125.148 108.033C122.282 106.298 119.604 103.578 116.02 103.158C115.956 103.5 117.406 103.614 116.321 105.029C116.146 104.27 114.887 103.569 115.112 102.129C111.95 100.515 108.003 99.1564 104.712 97.2352C101.989 95.6483 98.8081 94.7447 96.1217 93.1396C90.8217 89.9738 87.1446 86.2278 82.7739 82.9283C81.5019 81.9682 80.5276 80.8072 80.4875 78.4712C82.6455 76.1203 83.3249 77.4324 85.1075 77.3977C85.1429 76.6906 85.6018 75.726 85.1325 75.3263C85.2927 75.1785 86.2192 74.4512 85.9432 74.2003C88.2539 71.836 89.1643 73.8266 90.9668 72.5663C91.1371 70.8111 89.0761 71.613 88.0821 70.2117C87.6748 71.2499 88.0878 71.7895 88.6316 72.2493C86.8346 72.5979 85.4785 70.6513 85.0393 68.587C86.4237 67.6544 85.9978 69.3135 87.4992 68.9865C88.1658 67.4843 89.1123 67.5728 89.7734 66.3373C89.7854 65.6973 89.2723 65.3764 88.9437 64.9454C89.5046 64.7493 90.2839 63.5502 90.7765 63.6714C91.5122 62.6966 91.3573 62.264 91.4986 61.6507C91.3538 61.3528 90.1718 62.674 90.3619 62.9748C89.2725 63.9589 89.7635 61.2596 88.7212 62.7102C89.3371 61.3411 90.184 61.9176 90.802 61.6003C91.1108 60.6744 90.6927 60.1921 90.7037 59.4474C91.5492 58.8919 91.6979 60.0979 92.0621 60.3596C92.3337 60.36 92.2735 59.9663 92.6696 59.5149C92.2466 58.4626 91.0456 57.1102 90.4374 56.7644C91.3146 55.5063 90.6901 57.1326 91.3375 56.5322C91.4051 54.9884 92.9956 52.714 94.7281 50.042C95.7856 49.9951 96.2068 49.7109 96.8611 50.6408C97.1825 50.4804 97.3073 50.0056 97.9193 49.6803C98.5562 48.2961 97.4837 47.452 96.8768 47.3115C98.0859 46.2915 97.966 44.9095 97.8363 44.1978C98.4638 43.2583 98.8055 43.6435 99.3435 43.1223C101.21 39.5972 103.37 40.1565 105.248 38.7382C108.061 39.719 109.528 42.962 112.332 43.9096C113.218 44.2099 114.514 43.9331 115.365 44.2765C117.305 45.0544 118.889 46.4562 120.755 47.4759C126.412 50.5703 131.121 54.5245 137.294 57.3255C139.248 58.2122 141.788 59.0894 143.83 60.4606C147.238 62.7475 151.307 64.3433 153.181 67.5729C153.502 67.4126 153.641 66.8728 154.16 66.9758C154.018 68.7425 157.272 66.9233 156.066 69.9262Z" fill="#73CAE4" fill-opacity="0.26"/>
<path id="path338_4" fill-rule="evenodd" clip-rule="evenodd" d="M81.1712 163.808C81.8258 163.224 81.1851 164.566 81.8674 163.854C81.7385 162.979 82.4394 161.591 81.9017 160.971C81.7883 161.787 81.4699 161.741 81.0265 162.469C81.7882 161.512 81.9031 163.206 81.1712 163.808ZM97.8102 169.368C98.091 169.455 98.0698 168.855 98.335 168.884C100.181 170.037 101.624 172.409 104.374 172.443C105.247 174.443 107.382 174.881 108.895 175.834C109.991 176.523 110.706 178.175 112.727 177.11C110.735 175.495 108.212 174.501 106.838 172.82C104.3 172.092 101.884 169.866 98.8112 167.952C98.7623 167.664 99.5624 166.849 99.3622 166.655C98.8735 167.196 98.4422 167.464 98.0665 167.46C94.1085 164.332 90.6033 162.042 88.0304 160.025C87.9881 159.718 88.8699 158.04 88.0093 158.767C88.0611 158.921 88.0114 159.892 87.6572 159.779C86.4533 158.111 81.0458 156.072 80.1334 153.167C80.2309 153.319 80.1049 153.609 79.9818 153.898C77.9852 152.274 75.3677 152.001 74.4666 149.853C75.6309 152.324 76.8155 155.31 79.7538 154.993C79.5541 155.276 79.354 155.56 79.1543 155.842C80.689 154.872 80.3676 157.824 80.9895 157.882C84.0837 156.178 83.1441 159.721 85.0904 160.579C86.4992 159.213 87.4623 161.01 87.6504 161.85C90.8089 163.704 94.733 166.115 97.8102 169.368ZM72.7691 151.226C72.5202 150.577 73.2587 150.462 73.6932 150.175C73.8492 149.345 73.0924 149.11 72.3267 149.275C73.3572 149.224 71.8061 151.118 72.3482 150.533C72.5567 150.663 72.9733 149.793 73.1972 149.846C72.8582 150.346 72.5473 150.708 72.2717 150.898C72.8304 150.695 72.2237 151.935 72.7691 151.226ZM71.2509 151.055C72.4692 148.036 69.3433 148.457 69.0004 146.254C68.5195 146.757 68.1352 146.792 67.7799 146.694C67.3315 146.179 66.4936 144.568 65.3428 145.506C65.8071 145.748 65.384 146.54 65.6125 146.927C66.3364 146.188 67.5279 146.734 67.5021 147.344C66.673 148.437 67.2668 146.881 66.6063 147.582C67.5839 148.054 70.4722 148.36 71.2509 151.055ZM65.2942 145.058C64.4715 144.906 64.5129 142.982 63.2307 144.116C64.0367 144.034 64.4618 145.818 65.2942 145.058ZM76.8274 151.407C77.1761 151.606 77.8827 151.151 78.0007 150.519C77.7334 150.218 77.3157 150.642 76.8274 151.407ZM73.7498 148.549C74.0688 148.141 74.444 147.474 74.6744 147.498C75.0358 148.068 76.1414 148.974 76.8608 148.525C73.2623 144.938 68.8283 142.147 66.6804 139.747C66.8207 139.749 66.931 139.901 67.1291 139.627C66.8778 139.024 66.3062 139.961 65.9073 140.069C65.1211 138.248 62.8178 137.644 62.0634 136.223C62.1857 135.946 61.9957 135.864 61.8626 135.747C61.903 135.921 61.9834 136.071 62.0634 136.223C62.0241 136.31 61.9534 136.42 61.8343 136.558C60.7375 135.406 59.8541 136.237 59.9983 134.519C59.26 135.587 59.0682 134.014 58.3299 135.079C62.182 138.967 69.2571 142.824 73.307 146.599C72.9905 147.507 72.3725 146.786 72.5821 147.368C73.2216 146.767 72.6428 148.256 73.4037 147.493C73.561 145.724 73.9517 147.485 73.7498 148.549ZM43.1922 126.363C42.5987 127.362 43.4136 127.193 43.9382 126.853C43.5919 126.485 43.9667 125.67 43.2206 125.55C42.8272 126.005 42.8923 126.398 42.6206 126.4C42.0453 126.333 43.2751 125.146 42.5991 125.142C42.2561 125.66 42.0074 125.723 41.8253 125.464C40.7883 127.077 42.0607 127.619 43.1922 126.363ZM38.968 123.582C38.9694 124.56 40.1015 125.464 40.9286 125.702C41.6117 122.734 38.5861 124.486 39.0234 121.959C38.721 122.281 38.4539 122.432 38.2508 122.279C37.1445 123.89 38.2426 123.863 38.968 123.582ZM44.9667 124.624C44.3449 124.692 44.9785 123.98 44.8683 123.732C44.4698 124.293 44.276 123.868 43.8205 124.701C44.184 125.155 44.1335 125.431 44.9667 124.624ZM55.8708 132.633C53.0538 130.712 51.1881 127.916 47.7956 127.319C50.1503 129.095 52.32 131.296 55.8708 132.633ZM58.4472 137.233C58.3827 137.167 58.3297 137.093 58.5228 136.867C58.7247 137.025 58.9946 136.859 59.2953 136.547C58.9888 135.985 58.423 136.667 57.9503 136.905C58.3726 136.787 57.7662 138.026 58.4472 137.233ZM57.2652 132.721C56.6288 133.518 56.3772 132.467 55.7956 132.999C55.9896 133.249 55.7255 133.783 55.6917 134.176C57.4056 133.351 56.6341 135.445 58.4042 134.716C58.5354 133.456 55.9484 133.938 57.2652 132.721ZM72.6777 140.792C72.5474 140.536 72.961 140.444 73.2776 139.942C72.2837 140.368 73.6511 138.811 72.7322 139.168C72.8791 139.496 72.6833 139.783 72.2555 140.1C72.3732 140.261 72.2839 141.322 72.6777 140.792ZM50.4039 121.565C50.7943 121.27 51.2651 120.589 51.5759 120.677C50.6378 122.098 52.2635 122.244 52.647 120.966C51.807 121.739 51.2996 118.969 49.4165 118.84C48.7239 120.948 49.8624 120.639 50.4039 121.565ZM44.1985 115.405C43.7121 115.298 43.6851 113.52 42.9565 114.587C42.9441 115.004 43.2551 116.606 44.1985 115.405ZM41.2919 113.077C41.4331 112.461 40.8343 112.397 40.3471 112.869C40.5163 113.272 40.6606 113.485 41.2919 113.077ZM40.4218 112.506C40.5762 111.716 39.7272 110.719 38.8834 111.077C39.4618 111.726 39.518 112.83 40.4218 112.506ZM114.303 158.646C113.784 157.638 113.272 156.959 112.315 157.338C112.36 158.056 113.593 158.868 114.303 158.646ZM111.942 157.093C111.753 156.877 111.635 155.82 110.949 156.438C110.867 156.821 111.422 157.608 111.942 157.093ZM122.703 163.759C123.184 164.661 124.446 164.747 125.264 165.031C124.684 164.375 124.145 163.738 122.703 163.759ZM118.23 160.816C117.021 160.118 115.848 158.742 114.352 159.092C116.158 159.83 116.48 161.143 118.23 160.816ZM62.2132 127.262C62.3949 127.482 62.6866 128.921 63.5304 127.717C62.773 127.596 63.1037 126.461 62.2132 127.262ZM53.0949 120.847C52.4269 121.692 52.8791 122.394 53.5162 121.538C53.6966 120.747 52.9389 121.523 53.0949 120.847ZM43.922 116.055C45.6975 116.063 45.9752 118.663 48.1737 118.022C46.636 117.326 46.3361 115.18 43.922 116.055ZM56.7462 123.665C55.4658 123.214 55.0737 120.889 53.2392 122.188C54.6312 122.403 54.8288 125.287 56.7462 123.665ZM87.5982 138.993C87.4668 138.174 86.5264 137.856 86.7834 136.797C87.5198 137.735 89.2119 139.451 90.3377 138.721C88.3119 136.775 85.8341 136.094 84.3535 133.538C84.4805 133.3 84.7444 132.977 84.6283 132.89C84.3625 133.266 84.095 133.645 83.8283 134.023C83.7558 133.346 82.7049 132.433 81.8901 133.161C82.1977 135.102 83.8721 136.261 85.0648 136.911C85.1206 136.732 84.7567 136.095 85.2163 136.18C85.6617 137.23 86.5811 138.827 87.5982 138.993ZM79.1283 132.173C79.8228 131.835 79.3335 132.942 80.074 132.382C79.9434 132.18 80.4115 130.82 79.8523 131.407C79.9068 131.532 79.8303 131.738 79.5779 132.054C79.4181 131.917 79.0579 131.804 79.1283 132.173ZM78.8801 132.011C79.1468 131.633 79.4134 131.255 79.6805 130.877C77.8228 128.534 76.0787 128.166 73.7457 126.139C74.2629 130.033 77.7418 128.714 78.8801 132.011ZM73.248 125.813C73.0673 124.979 70.3506 124.87 71.5353 123.857C71.6586 123.476 69.8703 124.067 69.9407 124.052C70.7419 124.821 72.1336 126.679 73.248 125.813ZM69.196 123.56C69.466 123.169 69.6937 122.978 69.9205 122.793C69.8063 122.442 70.0792 121.466 69.2991 122.385C69.4931 122.635 69.2294 123.169 69.196 123.56ZM91.4903 136.576C91.1532 135.565 89.704 135.247 90.2533 133.687C90.4566 133.844 90.7269 133.677 91.0255 133.367C89.8515 134.03 91.5823 131.973 90.6055 132.675C89.9625 133.501 88.5915 131.457 87.8939 132.133C88.1088 134.369 89.3781 136.585 91.4903 136.576ZM96.5909 137.858C96.5526 135.22 95.3439 137.945 94.0571 135.775C93.6949 137.231 96.0158 137.579 94.0701 139.106C95.7573 137.918 96.3674 141.893 97.9975 141.276C98.1334 140.556 97.4576 140.34 98.1293 139.287C98.0294 139.701 98.6291 139.766 99.0753 139.493C98.0547 139.121 97.8407 137.237 96.5909 137.858ZM98.9994 139.858C99.3755 139.86 99.5674 140.746 100.069 140.148C99.723 139.717 99.775 139.149 98.9994 139.858ZM150.606 166.772C152.576 167.494 152.278 168.424 154.236 168.333C153.734 167.43 152.265 165.424 150.606 166.772ZM160.6 171.692C160.232 171.337 159.437 171.249 159.557 170.59C159.129 171.811 159.718 172.325 160.6 171.692ZM103.849 133.508C102.504 132.931 102.637 131.042 101.289 132.236C102.092 131.882 102.704 134.593 103.849 133.508ZM92.7985 124.159C92.9986 123.876 93.1995 123.592 93.3988 123.31C93.3884 122.832 92.3234 122.778 92.7576 121.641C91.3873 123.327 91.2689 120.569 89.9958 120.655C89.7331 122.845 92.0476 122.597 92.7985 124.159ZM89.0995 120.893C89.444 118.371 86.6418 119.365 87.1457 116.702C89.3297 117.861 90.4505 120.301 93.4056 121.238C93.3708 120.836 92.8541 120.733 93.0603 120.181C94.5236 120.193 94.4028 121.386 94.3719 122.705C94.825 121.886 95.0155 122.326 95.3446 122.1C95.2336 122.981 95.1609 124.343 96.3114 123.567C93.8186 117.704 85.4371 112.381 81.4639 110.059C83.4472 112.658 85.8588 112.759 86.9997 115.363C85.2811 116.142 85.8269 112.621 83.494 113.885C84.4032 114.044 84.8603 115.657 85.5774 116.088C86.0685 115.22 86.7539 117.1 85.3227 117.993C86.5118 118.783 88.3051 119.853 89.0995 120.893ZM82.4513 112.783C81.5302 111.154 80.5012 111.113 79.2217 110.656C80.279 112.035 80.844 113.569 82.4513 112.783ZM71.7941 104.938C71.4371 104.843 71.0537 104.877 70.5732 105.378C70.9284 105.696 71.2105 106.881 72.0639 106.361C72.1412 105.645 71.2504 105.531 71.4699 105.141C71.5558 105.174 71.6464 105.195 71.7941 104.938ZM69.6267 105.173C70.7207 103.733 70.2605 105.347 70.6488 105.014C70.5071 104.813 71.0011 104.337 71.2491 104.165C69.8529 104.262 70.3616 102.815 68.4607 103.99C68.4372 103.209 67.2446 103.155 67.8942 101.956C67.2892 102.384 67.6513 102.324 67.095 103.088C67.9032 103.328 67.8837 104.084 68.1841 104.638C69.2126 103.11 69.3401 104.827 69.6267 105.173ZM66.3009 102.152C65.2711 101.916 65.8628 100.553 65.0842 100.523C65.2704 101.15 64.4642 102.391 64.8777 102.878C65.5849 101.159 65.2774 103.041 66.3009 102.152ZM98.2302 123.169C98.4077 126.128 101.093 126.708 102.571 128.103C102.339 127.834 102.82 127.158 103.248 126.886C101.624 125.336 100.149 123.594 98.2302 123.169ZM74.9211 108.241C75.1859 108.321 74.9169 109.771 75.2175 108.853C75.1534 108.786 75.1012 108.713 75.2938 108.486C75.8081 108.644 75.9115 109.057 76.0875 109.424C76.8431 108.417 75.3355 107.994 74.9211 108.241ZM78.5502 102.331C78.7434 101.413 77.8324 102.336 77.48 102.042C77.5913 101.885 77.6059 101.655 77.3563 101.96C77.1926 102.983 77.7862 102.649 78.5502 102.331ZM91.0545 171.975C90.1548 172.563 90.6706 172.24 89.8817 172.863C87.0542 169.906 85.1536 168.726 82.3579 166.251C82.5442 166.036 82.6817 166.051 82.8823 165.767C82.4298 165.708 80.9992 166.298 81.5926 164.5C81.33 164.631 81.0398 164.893 80.7427 165.188C80.6295 165.046 81.0037 164.601 81.2189 164.256C81.0806 164.244 80.8947 164.459 80.7714 164.375C80.218 164.429 80.9762 164.902 80.1707 165.225C79.4597 164.419 80.4421 163.332 78.8033 164.326C78.3276 163.754 78.5835 162.466 77.5127 163.062C77.3666 162.733 77.562 162.446 77.9894 162.129C76.7106 162.756 76.7006 161.575 75.8013 161.104C76.1507 160.779 76.4396 160.752 76.6984 160.865C77.2864 159.824 75.9359 160.619 76.4291 159.442C77.0089 159.411 77.6092 158.793 77.6981 159.45C78.0741 157.414 75.4947 156.478 74.572 156.145C75.1054 156.02 75.4041 154.583 74.6472 155.781C74.6098 155.38 75.1781 154.603 74.9512 154.321C75.4747 153.599 75.8156 154.297 75.9995 153.352C75.6341 152.998 75.1597 154.572 74.5776 154.077C74.4621 154.624 74.8302 154.873 74.0756 155.818C73.9373 155.574 73.684 155.885 73.425 156.222C73.3568 155.315 74.7444 155.399 74.3032 154.723C73.4919 155.418 72.2799 155.033 71.7625 154.712C72.3641 156.468 74.1633 155.976 74.6408 157.851C73.3539 159.453 73.1877 158.069 73.1987 157.317C72.8304 157.174 73.0247 157.916 72.3982 158.45C72.3845 158.18 71.5441 157.773 71.4049 157.795C71.4324 156.839 72.3171 157.414 72.7022 156.989C72.4852 156.75 71.9832 155.137 70.4107 157.14C70.6386 156.469 71.0909 155.659 70.7902 155.316C70.6667 155.604 70.5403 155.894 70.6378 156.047C69.8654 156.304 71.1415 154.499 71.8385 154.347C70.95 152.527 67.8096 150.882 65.482 148.917C64.3476 147.961 62.8592 147.116 62.1541 145.898C61.7145 145.136 59.3248 143.837 57.9299 143.117C57.8233 142.92 58.3287 142.34 58.6054 141.903C56.656 142.98 56.582 140.489 54.4783 140.015C54.3663 139.874 54.7388 139.43 54.9545 139.085C54.8102 138.796 53.8042 139.605 54.6577 138.474C52.2349 139.41 51.4387 136.956 50.1574 136.342C49.978 136.254 49.4791 136.718 49.5094 136.745C49.2692 136.531 49.5819 135.435 49.1151 135.241C48.5675 135.013 48.4537 134.772 48.0732 134.139C47.7294 133.569 46.9533 132.517 46.7337 132.428C46.5614 132.358 46.161 133.028 45.9607 132.75C45.8008 132.524 46.216 132.001 46.1843 131.718C46.0725 131.831 45.0252 131.25 44.4223 131.32C45.3401 130.277 42.4923 130.029 41.8404 128.792C42.3172 128.261 42.6054 128.483 42.7641 127.741C41.7668 127.696 40.7412 129.139 41.0742 127.042C39.6787 127.838 39.797 126.962 38.811 126.382C39.2091 125.821 39.4033 126.246 39.8588 125.413C38.9365 126.365 39.3651 124.763 38.3905 125.689C38.3133 125.564 38.488 125.291 38.6389 125.174C37.1925 125.764 36.2382 124.197 35.6075 123.444C36.2949 122.767 36.2484 122.379 36.6566 122.474C36.5683 121.872 35.9147 121.024 36.9865 120.204C36.5706 120.41 36.4414 120.326 36.4904 119.876C36.2074 120.206 36.19 120.373 36.2515 120.491C35.1735 119.029 33.4451 117.229 32.9417 115.881C32.376 116.57 32.7078 115.967 31.9209 116.038C32.1944 115.85 32.5057 115.487 32.8455 114.987C32.4897 114.884 31.8243 116.28 31.5486 115.791C32.8397 113.751 30.1203 115.194 30.7823 114.043C30.6037 113.993 30.312 114.492 30.0579 114.811C29.871 113.994 29.548 114.07 28.5664 113.83C30.4243 113.278 28.8145 113.084 28.1447 113.138C28.5193 112.466 28.6673 112.891 28.9941 112.451C29.1611 111.803 28.8364 111.154 28.0479 112.244C28.4351 110.484 27.7067 110.04 27.4131 108.506C28.787 107.744 29.9254 108.236 31.3951 109.054C31.6676 109.05 31.6013 108.659 31.995 108.203C34.2289 108.722 35.388 110.76 37.8893 110.423C36.1963 106.708 31.9374 105.762 29.6968 102.954C31.0596 102.731 31.5528 102.8 32.8571 103.375C33.3191 102.506 32.3306 102.537 32.4632 101.872C32.9742 101.453 33.2682 102.076 33.7328 101.878C32.6955 99.7994 30.6464 99.22 28.6178 97.2666C29.2252 96.1565 29.316 97.5341 29.9917 96.0957C33.622 99.113 38.6912 98.2393 39.5844 101.582C39.041 102.159 38.8102 101.233 38.3918 101.209C38.5559 103.133 40.2468 103.761 41.518 104.514C45.0729 106.617 48.6684 108.64 52.1064 110.652C52.2967 110.374 52.1101 110.331 52.057 110.205C56.4191 111.319 61.9234 114.884 64.6063 118.464C64.9358 118.238 65.1268 118.678 65.5781 117.86C65.6088 119.949 67.4039 119.71 68.7322 120.353C72.1322 121.992 74.467 126.014 77.7758 127.133C76.442 128.285 78.0779 127.484 78.645 127.705C80.9121 128.594 83.2997 131.704 85.6994 133.178C86.0484 130.906 82.6758 131.068 82.4268 128.535C82.8807 127.707 82.8688 129.123 83.3235 128.295C82.8594 124.915 79.1589 126.109 78.6861 122.753C78.314 122.923 78.4092 123.253 77.8363 123.439C74.1507 121.904 69.9131 117.675 66.2617 114.575C65.8294 114.207 64.8874 114.791 64.2932 114.526C59.3001 112.288 57.4493 106.759 52.7457 104.85C55.5066 105.438 56.6058 107.393 59.8554 108.7C60.034 108.75 60.3254 108.251 60.5799 107.93C62.1562 109.001 62.0854 110.23 63.3345 110.988C69.3645 114.659 75.7392 119.955 83.3916 122.532C84.0163 122.613 84.0983 121.547 84.6409 121.279C85.0025 123.393 87.5317 122.633 87.1675 125.432C87.6827 125.398 87.3878 124.576 87.395 124.337C89.1963 124.227 88.5176 128.225 90.8192 128.249C91.3165 127.252 90.5747 127.024 90.8251 126.179C90.9378 125.918 91.6704 126.593 91.4947 127.035C92.823 125.81 94.3491 128.076 95.1735 129.042C96.3381 127.799 97.2904 130.872 98.8312 129.789C95.945 126.91 91.0034 125.189 88.5751 121.378C88.1877 121.831 88.2933 121.978 88.4223 122.108C87.78 122.299 87.4534 121.895 87.9537 120.969C87.4961 120.597 87.6858 121.43 87.1055 121.655C86.9297 121.148 86.9414 120.93 86.8835 120.68C85.2024 120.754 84.7021 118.907 83.9292 117.905C82.0016 116.021 84.423 118.734 85.5997 117.345C83.6572 114.871 79.6838 113.665 78.1236 111.18C79.0721 109.698 78.5674 111.464 79.2956 110.293C78.7192 109.152 77.4995 109.084 76.888 108.291C76.398 109.338 77.6198 109.322 76.6807 110.647C75.5901 110.183 74.7623 108.981 73.9488 108.846C75.4201 106.811 73.3949 106.402 72.3324 107.784C71.5744 107.883 72.6438 106.847 72.112 106.808C71.9067 106.775 71.5885 107.288 71.7113 107.375C69.8186 106.602 65.5962 104.212 64.133 102.386C64.0977 102.09 64.3301 101.627 64.6853 101.089C64.1509 101.09 64.1144 102.05 63.6842 102.505C63.0263 101.189 61.5341 101.619 61.5992 100.304C62.2618 99.1607 62.4415 100.33 62.8699 100.309C63.0558 99.5845 62.4678 99.927 63.4217 99.0129C60.3047 97.3586 59.5782 96.8427 57.0854 94.8419C59.9998 94.0836 60.7877 97.3536 63.3036 96.8605C63.855 98.3703 65.3243 97.9946 66.0861 99.1056C66.4539 99.2493 66.26 98.5061 66.8865 97.9724C67.5007 97.9141 67.1856 98.1325 67.6317 98.4642C68.255 97.7591 67.7612 97.7472 67.8588 97.3688C68.4826 96.7032 68.0193 98.2732 68.8045 97.5759C68.9834 95.9847 66.6147 97.9975 66.2441 96.3062C66.5289 95.71 66.012 95.865 66.7194 95.3753C66.0637 95.0404 66.1321 94.2546 65.3048 94.0276C64.758 93.6768 65.6287 93.5254 65.7544 93.9079C67.0441 94.4766 69.1885 94.4052 69.1072 96.1166C70.269 95.5479 69.6195 96.8343 70.4261 96.5691C70.2436 97.1002 69.7147 97.8251 69.1764 97.8223C70.4644 100.418 73.4776 101.07 75.6862 102.521C76.1765 100.213 73.2137 101.234 73.3323 98.896C74.6564 98.8948 75.3302 99.8303 76.2655 100.413C75.3792 101.208 76.5455 101.797 77.1077 101.797C77.3785 101.796 77.3151 101.401 77.7076 100.947C78.1855 101.957 79.2106 101.646 80.1925 102.582C80.0512 103.042 79.5661 103.714 79.7644 103.962C80.8371 101.905 79.8628 104.9 80.9587 104.332C78.6692 106.001 80.0421 102.373 78.3986 103.061C78.9946 105.123 79.6407 106.925 81.697 106.893C82.2032 106.156 81.3767 106.244 82.3265 105.231C83.2544 105.846 83.4328 106.546 84.5623 106.704C84.2522 107.063 84.0847 106.734 83.864 106.66C83.8196 109.014 85.7099 110.19 87.2611 111.385C87.8435 111.038 87.849 110.487 87.8125 110.088C88.3869 109.367 88.6272 110.249 89.1584 109.729C89.4911 114.156 95.0223 113.273 95.1104 117.795C95.4508 117.235 95.8537 117.57 96.6066 116.707C97.6181 117.26 97.8899 118.633 99.6158 117.858C99.5984 119.783 103.001 118.915 101.618 122.495C104.318 121.035 105.216 122.081 106.843 123.858C106.527 124.248 106.401 123.714 106.069 124.181C106.319 125.032 107.241 125.466 107.781 126.137C108.208 125.184 107.274 125.074 106.815 124.671C107.932 123.261 107.601 124.836 108.458 124.921C107.333 128.121 110.271 128.136 111.757 128.754C111.974 128.142 111.266 128.105 111.287 127.616C113.207 127.223 113.327 129.631 114.843 129.54C114.575 129.918 114.309 130.295 114.042 130.673C115.983 132.924 118.11 133.485 120.902 134.359C121.296 134.384 121.064 133.818 121.628 133.59C124.509 135.299 127.213 137.995 130.8 138.383C130.861 138.041 129.409 137.94 130.482 136.515C130.664 137.272 131.929 137.962 131.717 139.403C134.893 140.989 138.853 142.312 142.161 144.203C144.897 145.765 148.087 146.64 150.788 148.221C156.116 151.339 159.827 155.052 164.227 158.311C165.507 159.26 166.492 160.412 166.553 162.748C164.416 165.118 163.725 163.812 161.943 163.863C161.914 164.57 161.464 165.539 161.937 165.934C161.778 166.084 160.858 166.819 161.136 167.068C158.847 169.453 157.919 167.47 156.128 168.747C155.973 170.504 158.027 169.683 159.033 171.075C159.431 170.034 159.013 169.498 158.465 169.043C160.259 168.678 161.633 170.612 162.091 172.673C160.715 173.618 161.126 171.955 159.627 172.295C158.974 173.803 158.027 173.723 157.377 174.965C157.371 175.605 157.887 175.921 158.219 176.349C157.66 176.55 156.892 177.757 156.398 177.64C155.671 178.621 155.83 179.052 155.694 179.667C155.842 179.964 157.012 178.632 156.819 178.333C157.899 177.339 157.433 180.042 158.462 178.582C157.858 179.957 157.006 179.388 156.391 179.711C156.091 180.64 156.513 181.118 156.509 181.863C155.668 182.426 155.509 181.221 155.142 180.963C154.871 180.965 154.934 181.358 154.542 181.813C154.975 182.862 156.188 184.203 156.799 184.543C155.933 185.809 156.543 184.178 155.901 184.784C155.848 186.328 154.278 188.617 152.569 191.304C151.512 191.361 151.094 191.649 150.431 190.725C150.111 190.888 149.99 191.364 149.381 191.695C148.757 193.085 149.837 193.919 150.445 194.054C149.245 195.085 149.378 196.466 149.514 197.176C148.895 198.121 148.55 197.739 148.016 198.265C146.181 201.807 144.016 201.267 142.151 202.703C139.33 201.747 137.834 198.518 135.021 197.595C134.133 197.303 132.84 197.592 131.985 197.256C130.038 196.496 128.442 195.108 126.566 194.105C120.882 191.062 116.138 187.151 109.939 184.406C107.978 183.537 105.43 182.682 103.375 181.33C99.9467 179.074 95.8639 177.515 93.9611 174.302C93.6412 174.465 93.5072 175.006 92.9872 174.908C93.1137 173.14 89.8759 174.989 91.0545 171.975Z" fill="#73CAE4" fill-opacity="0.26"/>
</g>
</svg>
