<svg version="1.2" xmlns="http://www.w3.org/2000/svg" viewBox="0 0 54 55" width="54" height="55"><style>.a{fill:#ff7b29}</style><path fill-rule="evenodd" class="a" d="m20.3 19.4v-6.4c0-0.9 0.9-1.6 1.9-1.6h8.6c1 0 1.9 0.7 1.9 1.6v6.4h1.5c1.6 0 2.8 1.1 2.8 2.4v16.5c0 1.3-1.2 2.4-2.8 2.4h-15.4c-1.6 0-2.8-1.1-2.8-2.4v-16.5c0-1.3 1.2-2.4 2.8-2.4zm0.9-6.4v6.4h2.8v-1.1c0-0.6 0.5-1 1.2-1h2.5c0.7 0 1.2 0.4 1.2 1v1.1h2.8v-6.4c0-0.4-0.4-0.8-0.9-0.8h-8.7c-0.5 0-0.9 0.4-0.9 0.8zm6.5 5.1h-2.5c-0.1 0-0.3 0.1-0.3 0.2v1.1h3.1v-1.1c0-0.1-0.1-0.2-0.3-0.2zm-5.6 6.1c-0.3 0-0.6 0.2-0.6 0.5v11.2c0 0.3 0.3 0.5 0.6 0.5 0.4 0 0.6-0.2 0.6-0.5v-11.2c0-0.3-0.2-0.5-0.6-0.5zm4.4 0c-0.4 0-0.7 0.2-0.7 0.5v11.2c0 0.3 0.3 0.5 0.7 0.5 0.3 0 0.6-0.2 0.6-0.5v-11.2c0-0.3-0.3-0.5-0.6-0.5zm3.7 11.7c0 0.3 0.2 0.5 0.6 0.5 0.3 0 0.6-0.2 0.6-0.5v-11.2c0-0.3-0.3-0.5-0.6-0.5-0.4 0-0.6 0.2-0.6 0.5z"/><path class="a" d="m18.9 41.7h3.7v0.8c0 0.5-0.4 0.8-0.9 0.8h-1.8c-0.6 0-1-0.3-1-0.8z"/><path class="a" d="m30.4 41.7h3.7v0.8c0 0.5-0.4 0.8-1 0.8h-1.8c-0.5 0-0.9-0.3-0.9-0.8z"/></svg>